<svg xmlns="http://www.w3.org/2000/svg" version="1.1" xmlns:xlink="http://www.w3.org/1999/xlink" xmlns:svgjs="http://svgjs.dev/svgjs" width="2000" height="1999" viewBox="0 0 2000 1999"><g transform="matrix(1,0,0,1,-0.431486880466764,-0.4312711370263287)"><svg viewBox="0 0 343 343" data-background-color="#ffffff" preserveAspectRatio="xMidYMid meet" height="1999" width="2000" xmlns="http://www.w3.org/2000/svg" xmlns:xlink="http://www.w3.org/1999/xlink"><g id="tight-bounds" transform="matrix(1,0,0,1,0.0740000000000407,0.07400000000001228)"><svg viewBox="0 0 342.85155851775386 342.85155851775386" height="342.85155851775386" width="342.85155851775386"><g><svg></svg></g><g><svg viewBox="0 0 342.85155851775386 342.85155851775386" height="342.85155851775386" width="342.85155851775386"><g><path d="M0 171.426c0-94.676 76.75-171.426 171.426-171.426 94.676 0 171.426 76.75 171.426 171.426 0 94.676-76.75 171.426-171.426 171.426-94.676 0-171.426-76.75-171.426-171.426zM171.426 340.134c93.175 0 168.708-75.533 168.708-168.708 0-93.175-75.533-168.708-168.708-168.709-93.175 0-168.708 75.533-168.709 168.709 0 93.175 75.533 168.708 168.709 168.708z" data-fill-palette-color="tertiary" fill="#ee3e38" stroke="transparent"></path><ellipse rx="164.56874808852186" ry="164.56874808852186" cx="171.42577925887693" cy="171.42577925887693" fill="#ee3e38" stroke="transparent" stroke-width="0" fill-opacity="1" data-fill-palette-color="tertiary"></ellipse></g><g transform="matrix(1,0,0,1,64.84655864529837,101.32804582264515)"><svg viewBox="0 0 213.1584412271571 140.19546687246356" height="140.19546687246356" width="213.1584412271571"><g><svg viewBox="0 0 213.1584412271571 140.19546687246356" height="140.19546687246356" width="213.1584412271571"><g><svg viewBox="0 0 213.1584412271571 140.19546687246356" height="140.19546687246356" width="213.1584412271571"><g transform="matrix(1,0,0,1,0,84.32574377841841)"><svg viewBox="0 0 213.1584412271571 55.869723094045135" height="55.869723094045135" width="213.1584412271571"><g id="textblocktransform"><svg viewBox="0 0 213.1584412271571 55.869723094045135" height="55.869723094045135" width="213.1584412271571" id="textblock"><g><svg viewBox="0 0 213.1584412271571 30.133458981209582" height="30.133458981209582" width="213.1584412271571"><g transform="matrix(1,0,0,1,0,0)"><svg width="213.1584412271571" viewBox="3.54 -37.55 269.04999999999995 38.04" height="30.133458981209582" data-palette-color="#ffffff"><path d="M32.47-20.7L32.47-14.31 12.43-14.31 12.43-20.7 32.47-20.7ZM35.33-6.35L35.33 0 12.43 0Q11.11 0 9.55-0.46 7.98-0.93 6.65-1.99 5.32-3.05 4.43-4.75 3.54-6.45 3.54-8.91L3.54-8.91 3.54-31.81Q3.54-32.47 3.78-33.06 4.03-33.64 4.46-34.08 4.88-34.52 5.47-34.77 6.05-35.01 6.74-35.01L6.74-35.01 35.33-35.01 35.33-28.66 9.89-28.66 9.89-8.91Q9.89-7.67 10.55-7.01 11.21-6.35 12.48-6.35L12.48-6.35 35.33-6.35ZM69.41-37.55L69.41-8.91Q69.41-7.28 68.99-5.97 68.58-4.66 67.89-3.67 67.21-2.69 66.31-1.99 65.4-1.29 64.41-0.85 63.43-0.42 62.41-0.21 61.4 0 60.5 0L60.5 0 49.05 0Q47.41 0 46.12-0.42 44.82-0.83 43.83-1.53 42.84-2.22 42.15-3.13 41.45-4.03 41.01-5.02 40.57-6.01 40.37-7.02 40.16-8.03 40.16-8.91L40.16-8.91 40.16-17.5Q40.16-19.95 41.05-21.64 41.94-23.34 43.27-24.4 44.6-25.46 46.16-25.93 47.73-26.39 49.05-26.39L49.05-26.39 60.5-26.39 60.5-20.04 49.09-20.04Q47.82-20.04 47.17-19.4 46.51-18.75 46.51-17.5L46.51-17.5 46.51-8.96Q46.51-7.67 47.15-7.01 47.8-6.35 49.05-6.35L49.05-6.35 60.5-6.35Q61.79-6.35 62.42-7.01 63.06-7.67 63.06-8.91L63.06-8.91 63.06-37.55 69.41-37.55ZM111.81-26.39L118.92-26.39Q117.4-23 115.64-19.71 113.89-16.43 111.97-13.5 110.05-10.57 108.05-8.09 106.05-5.62 104.08-3.82 102.12-2.03 100.25-1.01 98.38 0 96.72 0L96.72 0Q96.04 0 95.45-0.24 94.87-0.49 94.43-0.92 93.99-1.34 93.75-1.93 93.5-2.51 93.5-3.2L93.5-3.2 93.5-15.04 80.9-0.95Q80.41-0.46 79.84-0.23 79.27 0 78.66 0L78.66 0Q78 0 77.42-0.24 76.85-0.49 76.41-0.92 75.97-1.34 75.72-1.93 75.46-2.51 75.46-3.2L75.46-3.2 75.46-26.39 81.81-26.39 81.81-11.35 94.45-25.49Q95.14-26.17 96.08-26.35 97.02-26.54 97.92-26.15L97.92-26.15Q98.82-25.78 99.35-24.99 99.87-24.19 99.87-23.24L99.87-23.24 99.87-8.15Q101.92-10.13 103.58-12.33 105.24-14.53 106.67-16.86 108.1-19.19 109.36-21.59 110.62-24 111.81-26.39L111.81-26.39ZM147.28-17.65L147.28-8.74Q147.28-7.42 146.82-5.9 146.35-4.37 145.32-3.06 144.28-1.76 142.61-0.88 140.93 0 138.54 0L138.54 0 127.09 0Q125.77 0 124.25-0.46 122.72-0.93 121.42-1.97 120.11-3 119.23-4.68 118.35-6.35 118.35-8.74L118.35-8.74Q118.35-10.06 118.82-11.6 119.28-13.13 120.32-14.44 121.35-15.75 123.03-16.63 124.7-17.5 127.09-17.5L127.09-17.5 138.54-17.5 138.54-11.45 127.09-11.45Q125.8-11.45 125.09-10.66 124.38-9.86 124.38-8.69L124.38-8.69Q124.38-7.45 125.2-6.75 126.02-6.05 127.14-6.05L127.14-6.05 138.54-6.05Q139.84-6.05 140.54-6.84 141.25-7.62 141.25-8.79L141.25-8.79 141.25-17.65Q141.25-18.9 140.48-19.63 139.71-20.36 138.54-20.36L138.54-20.36 124.6-20.36 124.6-26.39 138.54-26.39Q139.86-26.39 141.39-25.93 142.91-25.46 144.22-24.43 145.52-23.39 146.4-21.72 147.28-20.04 147.28-17.65L147.28-17.65ZM175.8-26.39L175.8-20.04 161.51-20.04Q160.22-20.04 159.56-19.4 158.9-18.75 158.9-17.5L158.9-17.5 158.9 0 152.55 0 152.55-17.5Q152.55-19.14 152.97-20.43 153.38-21.73 154.08-22.72 154.78-23.71 155.68-24.4 156.58-25.1 157.57-25.54 158.56-25.98 159.57-26.18 160.59-26.39 161.46-26.39L161.46-26.39 175.8-26.39ZM208.83-37.55L208.83-8.91Q208.83-7.28 208.41-5.97 208-4.66 207.31-3.67 206.63-2.69 205.72-1.99 204.82-1.29 203.83-0.85 202.84-0.42 201.83-0.21 200.82 0 199.91 0L199.91 0 188.46 0Q186.83 0 185.53-0.42 184.24-0.83 183.25-1.53 182.26-2.22 181.57-3.13 180.87-4.03 180.43-5.02 179.99-6.01 179.78-7.02 179.58-8.03 179.58-8.91L179.58-8.91 179.58-17.5Q179.58-19.95 180.47-21.64 181.36-23.34 182.69-24.4 184.02-25.46 185.58-25.93 187.15-26.39 188.46-26.39L188.46-26.39 199.91-26.39 199.91-20.04 188.51-20.04Q187.24-20.04 186.58-19.4 185.93-18.75 185.93-17.5L185.93-17.5 185.93-8.96Q185.93-7.67 186.57-7.01 187.22-6.35 188.46-6.35L188.46-6.35 199.91-6.35Q201.21-6.35 201.84-7.01 202.48-7.67 202.48-8.91L202.48-8.91 202.48-37.55 208.83-37.55ZM272.59-32.3L272.59 0 266.19 0 266.19-20.85 254.94-1.05Q254.52-0.29 253.78 0.1 253.03 0.49 252.18 0.49L252.18 0.49Q251.35 0.49 250.63 0.1 249.91-0.29 249.49-1.05L249.49-1.05 238.19-20.85 238.19 0 231.84 0 231.84-32.3Q231.84-33.4 232.49-34.25 233.14-35.11 234.19-35.4L234.19-35.4Q234.7-35.52 235.21-35.49 235.72-35.45 236.2-35.27 236.68-35.08 237.07-34.75 237.46-34.42 237.73-33.96L237.73-33.96 252.18-8.84 266.63-33.96Q267.19-34.89 268.18-35.28 269.17-35.67 270.25-35.4L270.25-35.4Q271.27-35.11 271.93-34.25 272.59-33.4 272.59-32.3L272.59-32.3Z" opacity="1" transform="matrix(1,0,0,1,0,0)" fill="#ffffff" class="wordmark-text-0" data-fill-palette-color="quaternary" id="text-0"></path></svg></g></svg></g><g transform="matrix(1,0,0,1,0,37.24724544365762)"><svg viewBox="0 0 213.1584412271571 18.62247765038752" height="18.62247765038752" width="213.1584412271571"><g transform="matrix(1,0,0,1,0,0)"><svg width="213.1584412271571" viewBox="0.49 -37.99 455.5 39.800000000000004" height="18.62247765038752" data-palette-color="#ffffff"><path d="M31.45-35.79L31.49-35.99Q31.69-35.64 32.01-35.69 32.32-35.74 32.67-35.64L32.67-35.64 33.2-35.45Q33.5-35.4 33.64-35.33 33.79-35.25 33.94-35.16L33.94-35.16Q34.42-35.21 35.08-34.89 35.74-34.57 35.84-34.42L35.84-34.42Q35.25-32.37 34.64-30.44 34.03-28.52 33.5-26.56L33.5-26.56Q33.35-26.12 33.18-25.46 33.01-24.8 32.84-24.1 32.67-23.39 32.47-22.78 32.28-22.17 32.13-21.83L32.13-21.83 31.88-21.09Q31.01-17.58 30.08-14.14 29.15-10.69 28.03-7.18L28.03-7.18Q27.64-6.05 27.42-4.86 27.2-3.66 26.86-2.49L26.86-2.49Q26.46-1.9 26.44-1.46 26.42-1.03 26.37-0.59 26.32-0.15 26.2 0.24 26.07 0.63 25.78 0.78L25.78 0.78Q25.78 1.17 25.61 1.37 25.44 1.56 25.34 1.81L25.34 1.81Q24.95 1.81 24.54 1.46 24.12 1.12 23.78 0.83L23.78 0.83Q23.54 0.44 23.34-0.02 23.14-0.49 23.05-0.93L23.05-0.93Q22.61-2.93 22.12-4.88 21.63-6.84 21.14-8.79L21.14-8.79Q21.14-8.94 21.07-9.28 21-9.62 20.9-10.01 20.8-10.4 20.73-10.69 20.65-10.99 20.61-11.08L20.61-11.08Q20.31-12.94 19.85-14.77 19.38-16.6 18.7-18.31L18.7-18.31Q18.7-18.6 18.6-18.9 18.51-19.19 18.51-19.48L18.51-19.48Q18.41-19.68 18.36-19.97 18.31-20.26 18.12-20.36L18.12-20.36Q17.87-20.36 17.85-20.07 17.82-19.78 17.82-19.53L17.82-19.53Q17.48-18.41 17.29-17.68 17.09-16.94 17.04-16.21L17.04-16.21Q16.75-15.67 16.75-14.94L16.75-14.94Q16.6-14.7 16.55-14.36 16.5-14.01 16.41-13.72L16.41-13.72Q15.58-10.6 14.65-7.76L14.65-7.76Q14.55-7.42 14.5-7.06 14.45-6.69 14.36-6.3L14.36-6.3Q14.06-5.03 13.87-3.81 13.67-2.59 13.48-1.32L13.48-1.32Q13.38-0.88 13.28-0.73 13.18-0.59 13.09-0.54 12.99-0.49 12.92-0.46 12.84-0.44 12.84-0.29L12.84-0.29Q12.6 0.1 12.7 0.2 12.79 0.29 12.79 0.39L12.79 0.39Q12.79 0.49 12.52 0.51 12.26 0.54 12.16 0.54L12.16 0.54Q11.77 0.39 11.55 0.59 11.33 0.78 11.18 0.78L11.18 0.78Q11.04 0.54 10.84 0.37 10.64 0.2 10.55 0.29L10.55 0.29Q10.06 0.05 9.94 0 9.81-0.05 9.72-0.15L9.72-0.15Q9.62-0.78 9.35-1.39 9.08-2 8.89-2.59L8.89-2.59Q8.69-3.27 8.59-3.98 8.5-4.69 8.35-5.42L8.35-5.42Q8.25-5.76 8.08-6.25 7.91-6.74 7.91-7.03L7.91-7.03Q7.81-7.62 7.79-7.81 7.76-8.01 7.67-8.15L7.67-8.15Q7.67-8.94 7.32-9.94 6.98-10.94 6.84-11.77L6.84-11.77Q6.3-14.6 5.66-17.14L5.66-17.14Q5.57-17.53 5.42-17.87 5.27-18.21 5.13-18.6L5.13-18.6Q4.88-19.34 4.69-20.09 4.49-20.85 4.25-21.63L4.25-21.63Q4.05-22.27 3.88-22.88 3.71-23.49 3.52-24.17L3.52-24.17Q3.42-24.46 3.27-24.76 3.13-25.05 2.98-25.39L2.98-25.39Q2.78-26.07 2.64-26.68 2.49-27.29 2.29-27.88L2.29-27.88Q1.9-29.2 1.49-30.49 1.07-31.79 0.68-33.11L0.68-33.11Q0.68-33.45 0.63-33.62 0.59-33.79 0.63-34.03L0.63-34.03Q0.54-34.23 0.51-34.47 0.49-34.72 0.49-34.96L0.49-34.96 0.49-35.64Q0.73-35.74 1.27-35.91 1.81-36.08 2.05-36.08L2.05-36.08Q2.69-36.04 2.98-36.08 3.27-36.13 3.47-36.33L3.47-36.33Q3.61-36.33 3.74-36.28 3.86-36.23 4-36.23L4-36.23Q4.59-36.38 4.69-36.28L4.69-36.28Q4.88-36.33 4.98-36.45 5.08-36.57 5.32-36.57L5.32-36.57Q5.42-36.57 5.57-36.33 5.71-36.08 5.81-35.99L5.81-35.99Q5.91-35.74 6.01-35.52 6.1-35.3 6.2-35.06L6.2-35.06Q6.49-34.33 6.71-33.4 6.93-32.47 7.23-31.64L7.23-31.64Q7.47-31.1 7.62-30.49 7.76-29.88 7.96-29.3L7.96-29.3Q8.06-29.05 8.15-28.81 8.25-28.56 8.35-28.32L8.35-28.32Q8.5-27.73 8.67-27.22 8.84-26.71 8.98-26.17L8.98-26.17Q9.57-24.46 10.08-22.73 10.6-21 10.99-19.29L10.99-19.29Q11.08-18.8 11.23-18.16 11.38-17.53 11.67-17.14L11.67-17.14Q11.87-17.29 11.94-17.68 12.01-18.07 12.11-18.31L12.11-18.31Q12.21-18.6 12.28-18.9 12.35-19.19 12.45-19.48L12.45-19.48Q12.6-20.17 12.74-20.78 12.89-21.39 13.09-22.02L13.09-22.02Q13.33-23.1 13.57-24.19 13.82-25.29 14.11-26.42L14.11-26.42Q14.31-27.1 14.5-27.83 14.7-28.56 14.89-29.25L14.89-29.25Q14.99-29.59 15.06-29.93 15.14-30.27 15.23-30.66L15.23-30.66Q15.38-31.05 15.55-31.45 15.72-31.84 15.82-32.23L15.82-32.23Q16.16-33.2 16.46-34.2 16.75-35.21 17.19-36.08L17.19-36.08Q17.29-36.18 17.38-36.25 17.48-36.33 17.63-36.43L17.63-36.43Q18.07-36.04 18.21-35.82 18.36-35.6 18.7-35.6L18.7-35.6Q18.9-35.45 18.97-35.23 19.04-35.01 19.34-35.06L19.34-35.06Q19.48-34.96 19.56-34.79 19.63-34.62 19.82-34.52L19.82-34.52Q20.02-34.08 20.07-34.13 20.12-34.18 20.26-34.13L20.26-34.13Q20.36-33.98 20.83-33.79 21.29-33.59 21.48-33.5L21.48-33.5Q21.48-33.3 21.56-33.15 21.63-33.01 21.63-32.81L21.63-32.81Q21.63-32.57 21.46-31.98 21.29-31.4 21.19-31.05L21.19-31.05Q21.44-30.96 21.53-30.98 21.63-31.01 21.73-31.01L21.73-31.01Q22.22-30.18 22.34-29.17 22.46-28.17 22.56-27.34L22.56-27.34Q22.66-26.95 22.73-26.59 22.8-26.22 22.9-25.83L22.9-25.83Q23.14-24.85 23.36-23.9 23.58-22.95 23.83-21.97L23.83-21.97Q23.83-21.73 24.02-21.44L24.02-21.44Q24.02-21.14 24.19-20.48 24.37-19.82 24.56-19.12 24.76-18.41 25-17.77 25.24-17.14 25.39-16.85L25.39-16.85Q25.63-16.99 25.68-17.53 25.73-18.07 25.93-18.31L25.93-18.31Q26.51-20.9 27.17-23.44 27.83-25.98 28.52-28.61L28.52-28.61Q28.96-30.37 29.42-31.98 29.88-33.59 30.52-35.3L30.52-35.3Q30.62-35.5 30.62-35.89L30.62-35.89Q31.2-36.04 31.45-35.79L31.45-35.79ZM56.42-12.79L56.42-12.79Q56.52-12.55 57.13-11.77 57.74-10.99 58.52-10.06 59.3-9.13 60.01-8.28 60.72-7.42 61.01-7.03L61.01-7.03Q61.55-6.35 62.06-5.69 62.57-5.03 63.01-4.3L63.01-4.3 63.89-2.83Q64.28-2.34 64.6-2 64.92-1.66 65.11-1.07L65.11-1.07Q65.21-0.68 65.21-0.54L65.21-0.54Q65.21-0.2 64.97-0.05L64.97-0.05Q64.58-0.05 64.55 0.07 64.53 0.2 64.33 0.29L64.33 0.29Q64.14 0.39 63.72 0.42 63.31 0.44 63.06 0.44L63.06 0.44Q62.62 0.44 61.96 0.42 61.3 0.39 60.91 0.54L60.91 0.54Q60.82 0.59 60.62 0.68 60.43 0.78 60.33 0.78L60.33 0.78Q59.94 0.78 59.77 0.66 59.6 0.54 59.3 0.49L59.3 0.49Q58.91 0.05 58.64-0.42 58.37-0.88 58.03-1.37L58.03-1.37Q57.69-1.71 57.35-1.98 57.01-2.25 56.76-2.59L56.76-2.59Q56.03-3.66 55.25-4.69 54.47-5.71 53.64-6.69L53.64-6.69Q53.25-7.23 52.81-7.67 52.37-8.11 51.98-8.64L51.98-8.64Q51.59-9.13 51.25-9.69 50.9-10.25 50.56-10.79L50.56-10.79Q50.27-11.23 49.78-11.94 49.29-12.65 48.71-13.35 48.12-14.06 47.54-14.7 46.95-15.33 46.56-15.67L46.56-15.67Q46.51-15.97 46.31-16.14 46.12-16.31 45.87-16.46L45.87-16.46Q45.78-16.7 45.66-16.92 45.53-17.14 45.53-17.38L45.53-17.38Q45.53-17.72 45.68-18.02L45.68-18.02Q45.78-18.21 45.8-18.38 45.83-18.55 45.92-18.75L45.92-18.75Q46.17-19.29 46.58-19.8 47-20.31 47.24-20.9L47.24-20.9Q47.34-21.04 47.34-21.22 47.34-21.39 47.44-21.53L47.44-21.53Q47.54-21.92 47.85-22.19 48.17-22.46 48.37-22.8L48.37-22.8Q48.61-23.19 48.83-23.61 49.05-24.02 49.29-24.51L49.29-24.51Q50.03-25.73 50.83-26.88 51.64-28.03 52.47-29.2L52.47-29.2Q53.1-30.18 53.71-31.08 54.32-31.98 54.96-32.91L54.96-32.91Q55.3-33.35 55.69-33.94 56.08-34.52 56.54-35.11 57.01-35.69 57.5-36.18 57.98-36.67 58.47-36.96L58.47-36.96Q59.2-37.01 59.45-36.65 59.69-36.28 60.18-36.28L60.18-36.28Q60.82-36.13 61.01-35.89 61.21-35.64 61.45-35.4L61.45-35.4Q62.13-35.4 62.55-35.16 62.96-34.91 63.36-34.42L63.36-34.42Q63.21-33.89 62.92-33.47 62.62-33.06 62.38-32.62L62.38-32.62Q61.99-32.42 61.82-32.08 61.65-31.74 61.3-31.54L61.3-31.54Q60.82-30.71 60.28-29.96 59.74-29.2 59.2-28.47L59.2-28.47Q58.91-28.03 58.59-27.69 58.28-27.34 58.03-26.95L58.03-26.95Q57.94-26.81 57.86-26.64 57.79-26.46 57.69-26.32L57.69-26.32Q57.11-25.39 56.42-24.58 55.74-23.78 55.15-22.8L55.15-22.8Q54.96-22.46 54.83-22.09 54.71-21.73 54.52-21.39L54.52-21.39Q54.32-21.09 53.96-20.61 53.59-20.12 53.25-19.56 52.91-18.99 52.64-18.48 52.37-17.97 52.37-17.63L52.37-17.63Q52.42-17.38 52.98-16.67 53.54-15.97 54.25-15.16 54.96-14.36 55.59-13.65 56.23-12.94 56.42-12.79ZM59.64-21.68L59.64-21.68Q59.99-20.95 60.38-20.41L60.38-20.41Q60.52-20.21 60.72-20.07 60.91-19.92 61.01-19.68L61.01-19.68Q61.11-19.58 61.21-19.26 61.3-18.95 61.4-18.8L61.4-18.8Q61.55-18.41 61.99-17.92 62.43-17.43 62.43-17.04L62.43-17.04Q62.43-16.8 62.33-16.5 62.23-16.21 62.18-15.97L62.18-15.97Q62.13-15.67 62.13-15.36 62.13-15.04 61.94-14.79L61.94-14.79Q61.7-14.55 61.4-14.5 61.11-14.45 60.87-14.26L60.87-14.26Q60.77-14.16 60.57-13.92 60.38-13.67 60.18-13.38 59.99-13.09 59.82-12.82 59.64-12.55 59.64-12.4L59.64-12.4Q59.06-12.35 58.89-12.38 58.72-12.4 58.52-12.35L58.52-12.35Q58.28-12.6 58.01-12.77 57.74-12.94 57.35-13.09L57.35-13.09Q57.25-13.48 56.91-13.99 56.57-14.5 56.32-14.84L56.32-14.84 55.98-15.28Q55.25-16.31 54.64-17.26 54.03-18.21 53.74-19.38L53.74-19.38Q54.66-20.07 55.18-20.41 55.69-20.75 56.28-21.04 56.86-21.34 57.42-21.61 57.98-21.88 58.47-22.27L58.47-22.27Q58.86-22.27 59.01-22.22 59.16-22.17 59.2-22.12 59.25-22.07 59.33-21.95 59.4-21.83 59.64-21.68ZM97.61-27.49L97.61-27.49Q97.61-26.95 97.83-26.59 98.05-26.22 98.05-25.93L98.05-25.93Q97.95-25.44 98.24-24.78 98.54-24.12 98.54-23.44L98.54-23.44Q98.44-23.14 97.78-22.68 97.12-22.22 96.32-21.68 95.51-21.14 94.75-20.63 94-20.12 93.7-19.82L93.7-19.82Q93.95-19.43 94.31-19.19 94.68-18.95 95.02-18.7L95.02-18.7Q95.31-18.46 95.88-17.99 96.44-17.53 97.05-16.99 97.66-16.46 98.17-15.97 98.68-15.48 98.83-15.23L98.83-15.23Q98.93-15.19 99-14.89 99.07-14.6 99.12-14.23 99.17-13.87 99.2-13.53 99.22-13.18 99.22-13.09L99.22-13.09Q99.17-12.55 99.24-12.3 99.32-12.06 99.39-11.79 99.46-11.52 99.51-11.28 99.56-11.04 99.56-11.04L99.56-11.04Q99.56-10.74 99.29-10.5 99.03-10.25 98.78-10.06L98.78-10.06Q98.54-9.86 98.32-9.67 98.1-9.47 97.85-9.23L97.85-9.23Q97.56-8.98 97.19-8.76 96.83-8.54 96.53-8.3L96.53-8.3Q96.34-8.2 96.19-8.03 96.05-7.86 95.9-7.76L95.9-7.76Q95.46-7.37 94.92-7.01 94.39-6.64 93.9-6.35L93.9-6.35Q93.36-6.01 92.87-5.64 92.38-5.27 91.85-4.88L91.85-4.88Q91.12-4.44 90.41-4.03 89.7-3.61 89.02-3.17L89.02-3.17Q88.67-2.93 88.36-2.69 88.04-2.44 87.7-2.25L87.7-2.25Q86.72-1.71 85.74-1.12 84.77-0.54 83.84 0.15L83.84 0.15Q83.06 0.34 82.72 0.46 82.37 0.59 82.03 0.59L82.03 0.59Q81.74 0.59 81.67 0.37 81.59 0.15 81.4 0.15L81.4 0.15Q80.67 0.24 80.59 0.17 80.52 0.1 80.37 0L80.37 0Q79.64 0.1 79.15 0L79.15 0Q79.01-0.24 78.96-0.61 78.91-0.98 78.66-1.22L78.66-1.22Q78.76-1.71 78.69-2.15 78.62-2.59 78.71-3.03L78.71-3.03Q78.57-3.61 78.57-4.1L78.57-4.1Q78.57-4.74 78.71-5.42L78.71-5.42Q78.57-5.86 78.57-6.3L78.57-6.3Q78.57-6.69 78.62-7.08 78.66-7.47 78.66-7.86L78.66-7.86Q78.66-8.35 78.47-8.74L78.47-8.74Q78.47-9.62 78.44-10.47 78.42-11.33 78.42-12.21L78.42-12.21Q78.42-12.6 78.42-12.99 78.42-13.38 78.47-13.82L78.47-13.82Q78.42-14.06 78.42-14.55L78.42-14.55Q78.42-14.84 78.52-15.06 78.62-15.28 78.62-15.53L78.62-15.53Q78.62-16.06 78.54-16.55 78.47-17.04 78.47-17.58L78.47-17.58Q78.47-18.07 78.54-18.51 78.62-18.95 78.62-19.43L78.62-19.43Q78.47-19.63 78.42-19.87 78.37-20.12 78.37-20.36L78.37-20.36Q78.37-20.56 78.47-20.95L78.47-20.95Q78.47-21.34 78.42-21.78 78.37-22.22 78.37-22.61L78.37-22.61Q78.37-22.8 78.4-22.95 78.42-23.1 78.47-23.29L78.47-23.29Q78.37-23.63 78.37-23.97 78.37-24.32 78.37-24.66L78.37-24.66Q78.37-25.1 78.42-25.56 78.47-26.03 78.47-26.46L78.47-26.46Q78.42-27.2 78.49-27.61 78.57-28.03 78.62-28.47L78.62-28.47 78.62-31.25Q78.62-31.64 78.52-32.1 78.42-32.57 78.42-33.01L78.42-33.01Q78.42-33.25 78.47-33.74 78.52-34.23 78.62-34.47L78.62-34.47Q79.3-35.5 80.23-35.64L80.23-35.64Q80.42-35.74 80.52-35.91 80.62-36.08 80.96-36.08L80.96-36.08Q81.54-36.57 81.74-36.84 81.94-37.11 82.23-37.35L82.23-37.35Q82.37-37.35 82.5-37.43 82.62-37.5 82.81-37.5L82.81-37.5Q83.16-37.4 83.38-37.3 83.6-37.21 83.84-37.16L83.84-37.16Q84.82-36.43 85.77-35.72 86.72-35.01 87.7-34.23L87.7-34.23Q88.14-33.84 88.55-33.45 88.97-33.06 89.41-32.71L89.41-32.71Q89.65-32.57 89.94-32.42 90.24-32.28 90.48-32.08L90.48-32.08Q91.02-31.74 91.55-31.37 92.09-31.01 92.63-30.66L92.63-30.66 96.14-28.47Q96.53-28.22 96.9-27.98 97.27-27.73 97.61-27.49ZM90.63-25.39L90.63-25.39Q89.89-25.73 89.24-26.22 88.58-26.71 87.84-26.95L87.84-26.95Q87.45-27.34 87.01-27.49 86.57-27.64 86.18-27.93L86.18-27.93Q85.74-28.32 85.4-28.61 85.06-28.91 84.52-29.15L84.52-29.15Q84.28-27.64 84.16-26.2 84.03-24.76 84.03-23.29L84.03-23.29Q84.03-21.78 84.33-20.41L84.33-20.41Q84.87-20.65 85.35-20.95 85.84-21.24 86.33-21.53L86.33-21.53Q86.53-21.63 86.7-21.73 86.87-21.83 87.11-21.92L87.11-21.92Q87.36-22.12 87.6-22.31 87.84-22.51 88.09-22.66L88.09-22.66Q88.62-23.05 89.14-23.36 89.65-23.68 90.19-24.07L90.19-24.07Q90.43-24.27 90.72-24.39 91.02-24.51 91.31-24.76L91.31-24.76Q91.26-24.95 90.99-25.07 90.72-25.2 90.63-25.39ZM89.21-16.26L89.21-16.26Q89.06-16.26 88.92-16.33 88.77-16.41 88.58-16.41L88.58-16.41Q87.99-16.02 87.48-15.75 86.96-15.48 86.43-15.14L86.43-15.14Q86.18-14.99 85.94-14.79 85.7-14.6 85.45-14.5L85.45-14.5Q84.82-14.11 84.47-13.84 84.13-13.57 83.94-13.18L83.94-13.18Q84.03-11.82 84.01-10.45 83.99-9.08 83.99-7.67L83.99-7.67Q83.99-7.42 84.13-7.13L84.13-7.13Q84.57-7.18 85.7-7.79 86.82-8.4 88.06-9.18 89.31-9.96 90.46-10.69 91.6-11.43 92.14-11.77L92.14-11.77Q92.53-11.87 93.04-12.16 93.56-12.45 93.65-12.84L93.65-12.84Q92.73-13.92 91.51-14.62 90.28-15.33 89.21-16.26ZM128.3-26.32L128.1-25.98Q128.3-25.88 128.45-25.81 128.59-25.73 128.74-25.68L128.74-25.68Q128.74-25.49 128.76-25.37 128.79-25.24 128.79-25.15L128.79-25.15 128.45-24.61Q128.15-24.46 127.47-23.88 126.78-23.29 126-22.61 125.22-21.92 124.54-21.29 123.86-20.65 123.61-20.41L123.61-20.41Q123.32-20.07 122.9-19.82 122.49-19.58 122.34-19.14L122.34-19.14Q122.59-18.75 122.9-18.58 123.22-18.41 123.61-18.16L123.61-18.16Q124.25-17.68 124.83-17.14 125.42-16.6 126-16.11L126-16.11Q126.69-15.58 127.27-15.06 127.86-14.55 128.54-14.11L128.54-14.11Q128.64-13.87 128.79-13.67 128.93-13.48 128.88-13.23L128.88-13.23Q128.98-12.99 129.13-12.84 129.28-12.7 129.28-12.4L129.28-12.4Q129.47-12.26 129.59-12.01 129.71-11.77 129.86-11.52L129.86-11.52Q129.76-11.28 129.67-11.13 129.57-10.99 129.47-10.74L129.47-10.74Q129.08-10.5 128.76-10.16 128.45-9.81 128.01-9.57L128.01-9.57Q127.86-9.18 127.57-8.98 127.27-8.79 127.03-8.54L127.03-8.54 126.3-7.67Q125.95-7.32 125.66-7.06 125.37-6.79 125.12-6.49L125.12-6.49Q124.73-6.1 124.37-5.83 124-5.57 123.66-5.03L123.66-5.03Q123.03-4.44 122.66-4.1 122.29-3.76 122.05-3.37L122.05-3.37Q121.56-2.93 121.24-2.66 120.93-2.39 120.73-2L120.73-2Q120.29-1.56 119.97-1.32 119.66-1.07 119.41-0.68L119.41-0.68Q119.02-0.44 118.83-0.15L118.83-0.15Q118.19 0.44 117.75 0.81 117.31 1.17 116.78 1.37L116.78 1.37Q116.19 1.27 115.9 0.83 115.6 0.39 115.07 0.15L115.07 0.15Q114.97 0 114.87-0.27 114.77-0.54 114.63-0.63L114.63-0.63Q114.09-0.98 114.04-1.07 113.99-1.17 113.89-1.27L113.89-1.27Q113.7-1.71 113.53-1.73 113.36-1.76 113.26-1.81L113.26-1.81Q113.21-1.86 113.09-2.08 112.97-2.29 112.92-2.39L112.92-2.39Q113.31-3.22 113.72-3.69 114.14-4.15 114.82-4.69L114.82-4.69Q115.7-5.42 116.6-6.42 117.51-7.42 118.34-8.25L118.34-8.25Q119.17-9.18 120.07-10.01 120.97-10.84 121.8-11.77L121.8-11.77Q121.41-12.16 121.07-12.52 120.73-12.89 120.24-13.09L120.24-13.09Q120.05-13.33 119.44-13.84 118.83-14.36 118.12-14.89 117.41-15.43 116.78-15.89 116.14-16.36 115.9-16.46L115.9-16.46Q115.65-16.8 115.33-16.97 115.02-17.14 114.77-17.43L114.77-17.43Q114.77-17.63 114.65-17.8 114.53-17.97 114.53-18.16L114.53-18.16Q114.77-18.8 114.63-18.87 114.48-18.95 114.48-19.19L114.48-19.19Q114.48-19.43 114.75-19.73 115.02-20.02 115.02-20.41L115.02-20.41Q115.41-20.8 115.82-21.07 116.24-21.34 116.63-21.68L116.63-21.68Q116.82-21.92 116.97-22.14 117.12-22.36 117.31-22.51L117.31-22.51Q117.85-22.8 118.19-22.9L118.19-22.9Q118.87-23.68 119.63-24.34 120.39-25 121.07-25.78L121.07-25.78Q120.97-26.17 120.66-26.37 120.34-26.56 120.1-26.86L120.1-26.86Q119.75-27.1 119.51-27.34 119.27-27.59 118.97-27.83L118.97-27.83Q118.29-28.32 117.34-29.05 116.38-29.79 115.43-30.62 114.48-31.45 113.67-32.25 112.87-33.06 112.48-33.74L112.48-33.74Q112.48-33.94 112.55-34.08 112.62-34.23 112.62-34.42L112.62-34.42Q113.16-35.01 113.31-35.25 113.45-35.5 113.55-35.79L113.55-35.79Q113.94-35.99 114.16-36.35 114.38-36.72 114.87-36.77L114.87-36.77Q114.97-36.91 114.94-37.06 114.92-37.21 114.97-37.35L114.97-37.35Q115.11-37.5 115.29-37.7 115.46-37.89 115.6-37.99L115.6-37.99Q115.95-37.94 116.21-37.84 116.48-37.74 116.73-37.65L116.73-37.65Q117.17-37.11 117.75-36.67 118.34-36.23 118.87-35.79L118.87-35.79Q119.07-35.6 119.22-35.42 119.36-35.25 119.56-35.11L119.56-35.11Q120.53-34.23 121.66-33.47 122.78-32.71 123.76-31.69L123.76-31.69Q124.73-30.76 125.83-29.93 126.93-29.1 127.76-28.03L127.76-28.03Q127.81-27.73 127.93-27.47 128.05-27.2 128.15-26.86L128.15-26.86Q128.15-26.42 128.3-26.32L128.3-26.32ZM172.15 0.59L172.15 0.59Q171.95 0.39 171.95 0.05L171.95 0.05Q171.95-0.2 171.98-0.37 172-0.54 172.05-0.78L172.05-0.78Q172.29-1.9 172.29-3.05 172.29-4.2 172.39-5.32L172.39-5.32Q172.44-6.01 172.47-6.69 172.49-7.37 172.49-8.06L172.49-8.06Q172.49-12.11 172.25-16.14 172-20.17 172-24.27L172-24.27Q172-27.1 172.1-29.96 172.2-32.81 172.25-35.69L172.25-35.69Q172.69-35.94 173.32-35.89 173.95-35.84 174.35-36.33L174.35-36.33Q174.59-36.38 174.83-36.35 175.08-36.33 175.32-36.33L175.32-36.33Q175.86-36.33 176.35-36.67 176.84-37.01 177.42-37.26L177.42-37.26Q177.71-37.16 177.84-37.18 177.96-37.21 178.1-37.21L178.1-37.21Q178.25-37.21 178.74-36.87 179.23-36.52 179.81-36.08 180.4-35.64 180.91-35.25 181.43-34.86 181.57-34.77L181.57-34.77Q182.79-33.84 183.74-32.74 184.7-31.64 185.62-30.52L185.62-30.52Q186.5-29.39 187.53-28.25 188.55-27.1 189.53-26.12L189.53-26.12Q189.87-25.73 190.24-25.44 190.6-25.15 190.95-24.76L190.95-24.76Q191.09-24.56 191.22-24.34 191.34-24.12 191.48-23.88L191.48-23.88Q191.78-23.54 192.17-23.29 192.56-23.05 192.9-22.71L192.9-22.71Q193.14-22.51 193.63-21.92 194.12-21.34 194.12-21.04L194.12-21.04Q194.12-20.85 194.02-20.7 193.93-20.56 193.83-20.36L193.83-20.36Q193.78-20.21 193.78-19.92 193.78-19.63 193.73-19.53L193.73-19.53Q193.24-19.14 193.19-19.04 193.14-18.95 193.05-18.85L193.05-18.85Q192.9-18.65 192.68-18.53 192.46-18.41 192.36-18.16L192.36-18.16Q192.27-18.02 192.29-17.87 192.31-17.72 192.22-17.53L192.22-17.53Q191.97-16.99 191.44-16.5 190.9-16.02 190.51-15.43L190.51-15.43Q189.97-14.55 189.43-13.67 188.9-12.79 188.21-11.96L188.21-11.96Q187.92-11.57 187.6-11.21 187.28-10.84 186.99-10.45L186.99-10.45Q186.75-10.16 186.55-9.84 186.36-9.52 186.11-9.13L186.11-9.13Q185.58-8.45 185.09-7.79 184.6-7.13 184.06-6.45L184.06-6.45Q183.48-5.62 182.79-4.81 182.11-4 181.57-3.17L181.57-3.17Q181.03-2.29 180.45-1.56 179.86-0.83 179.18-0.15L179.18-0.15Q178.98 0 178.69 0.29 178.4 0.59 178.1 0.59L178.1 0.59Q177.91 0.59 177.79 0.44 177.67 0.29 177.42 0.29L177.42 0.29Q177.37 0.29 177.13 0.34 176.88 0.39 176.54 0.44L176.54 0.44 175.66 0.54Q174.88 0.93 174.54 0.9 174.2 0.88 173.86 0.93L173.86 0.93Q173.66 0.98 173.54 1.07 173.42 1.17 173.27 1.17L173.27 1.17Q172.93 1.17 172.73 0.85 172.54 0.54 172.15 0.59ZM186.8-20.51L186.8-20.51Q186.8-20.75 186.33-21.19 185.87-21.63 185.62-21.83L185.62-21.83Q185.28-22.12 184.82-22.39 184.35-22.66 184.06-23L184.06-23Q183.82-23.29 183.6-23.61 183.38-23.93 183.13-24.22L183.13-24.22Q182.26-25.2 181.35-26.17 180.45-27.15 179.77-28.32L179.77-28.32Q179.33-28.61 178.94-29 178.54-29.39 178.01-29.64L178.01-29.64Q177.91-29.35 177.93-29.03 177.96-28.71 177.96-28.42L177.96-28.42Q177.96-27.29 177.86-26.22 177.76-25.15 177.76-24.07L177.76-24.07Q177.76-21.44 177.89-18.87 178.01-16.31 178.01-13.72L178.01-13.72Q178.01-12.74 178.03-11.77 178.06-10.79 178.2-9.81L178.2-9.81Q178.1-9.52 178.1-9.28L178.1-9.28Q178.1-9.03 178.2-8.64L178.2-8.64Q178.59-8.89 178.86-9.25 179.13-9.62 179.37-9.96L179.37-9.96Q180.2-11.04 181.01-12.13 181.82-13.23 182.65-14.36L182.65-14.36Q183.18-15.09 183.74-15.8 184.31-16.5 184.84-17.29L184.84-17.29Q184.99-17.48 185.31-17.97 185.62-18.46 185.94-18.97 186.26-19.48 186.53-19.92 186.8-20.36 186.8-20.51ZM214.21-12.79L214.21-12.79Q214.31-12.55 214.92-11.77 215.53-10.99 216.31-10.06 217.1-9.13 217.8-8.28 218.51-7.42 218.8-7.03L218.8-7.03Q219.34-6.35 219.85-5.69 220.37-5.03 220.81-4.3L220.81-4.3 221.68-2.83Q222.08-2.34 222.39-2 222.71-1.66 222.91-1.07L222.91-1.07Q223-0.68 223-0.54L223-0.54Q223-0.2 222.76-0.05L222.76-0.05Q222.37-0.05 222.34 0.07 222.32 0.2 222.12 0.29L222.12 0.29Q221.93 0.39 221.51 0.42 221.1 0.44 220.85 0.44L220.85 0.44Q220.42 0.44 219.76 0.42 219.1 0.39 218.71 0.54L218.71 0.54Q218.61 0.59 218.41 0.68 218.22 0.78 218.12 0.78L218.12 0.78Q217.73 0.78 217.56 0.66 217.39 0.54 217.1 0.49L217.1 0.49Q216.7 0.05 216.44-0.42 216.17-0.88 215.83-1.37L215.83-1.37Q215.48-1.71 215.14-1.98 214.8-2.25 214.56-2.59L214.56-2.59Q213.82-3.66 213.04-4.69 212.26-5.71 211.43-6.69L211.43-6.69Q211.04-7.23 210.6-7.67 210.16-8.11 209.77-8.64L209.77-8.64Q209.38-9.13 209.04-9.69 208.7-10.25 208.35-10.79L208.35-10.79Q208.06-11.23 207.57-11.94 207.09-12.65 206.5-13.35 205.91-14.06 205.33-14.7 204.74-15.33 204.35-15.67L204.35-15.67Q204.3-15.97 204.11-16.14 203.91-16.31 203.67-16.46L203.67-16.46Q203.57-16.7 203.45-16.92 203.33-17.14 203.33-17.38L203.33-17.38Q203.33-17.72 203.47-18.02L203.47-18.02Q203.57-18.21 203.59-18.38 203.62-18.55 203.72-18.75L203.72-18.75Q203.96-19.29 204.38-19.8 204.79-20.31 205.03-20.9L205.03-20.9Q205.13-21.04 205.13-21.22 205.13-21.39 205.23-21.53L205.23-21.53Q205.33-21.92 205.64-22.19 205.96-22.46 206.16-22.8L206.16-22.8Q206.4-23.19 206.62-23.61 206.84-24.02 207.09-24.51L207.09-24.51Q207.82-25.73 208.62-26.88 209.43-28.03 210.26-29.2L210.26-29.2Q210.89-30.18 211.5-31.08 212.11-31.98 212.75-32.91L212.75-32.91Q213.09-33.35 213.48-33.94 213.87-34.52 214.34-35.11 214.8-35.69 215.29-36.18 215.78-36.67 216.27-36.96L216.27-36.96Q217-37.01 217.24-36.65 217.49-36.28 217.97-36.28L217.97-36.28Q218.61-36.13 218.8-35.89 219-35.64 219.24-35.4L219.24-35.4Q219.93-35.4 220.34-35.16 220.76-34.91 221.15-34.42L221.15-34.42Q221-33.89 220.71-33.47 220.42-33.06 220.17-32.62L220.17-32.62Q219.78-32.42 219.61-32.08 219.44-31.74 219.1-31.54L219.1-31.54Q218.61-30.71 218.07-29.96 217.53-29.2 217-28.47L217-28.47Q216.7-28.03 216.39-27.69 216.07-27.34 215.83-26.95L215.83-26.95Q215.73-26.81 215.65-26.64 215.58-26.46 215.48-26.32L215.48-26.32Q214.9-25.39 214.21-24.58 213.53-23.78 212.94-22.8L212.94-22.8Q212.75-22.46 212.63-22.09 212.51-21.73 212.31-21.39L212.31-21.39Q212.11-21.09 211.75-20.61 211.38-20.12 211.04-19.56 210.7-18.99 210.43-18.48 210.16-17.97 210.16-17.63L210.16-17.63Q210.21-17.38 210.77-16.67 211.33-15.97 212.04-15.16 212.75-14.36 213.38-13.65 214.02-12.94 214.21-12.79ZM217.44-21.68L217.44-21.68Q217.78-20.95 218.17-20.41L218.17-20.41Q218.32-20.21 218.51-20.07 218.71-19.92 218.8-19.68L218.8-19.68Q218.9-19.58 219-19.26 219.1-18.95 219.19-18.8L219.19-18.8Q219.34-18.41 219.78-17.92 220.22-17.43 220.22-17.04L220.22-17.04Q220.22-16.8 220.12-16.5 220.02-16.21 219.98-15.97L219.98-15.97Q219.93-15.67 219.93-15.36 219.93-15.04 219.73-14.79L219.73-14.79Q219.49-14.55 219.19-14.5 218.9-14.45 218.66-14.26L218.66-14.26Q218.56-14.16 218.36-13.92 218.17-13.67 217.97-13.38 217.78-13.09 217.61-12.82 217.44-12.55 217.44-12.4L217.44-12.4Q216.85-12.35 216.68-12.38 216.51-12.4 216.31-12.35L216.31-12.35Q216.07-12.6 215.8-12.77 215.53-12.94 215.14-13.09L215.14-13.09Q215.04-13.48 214.7-13.99 214.36-14.5 214.12-14.84L214.12-14.84 213.77-15.28Q213.04-16.31 212.43-17.26 211.82-18.21 211.53-19.38L211.53-19.38Q212.46-20.07 212.97-20.41 213.48-20.75 214.07-21.04 214.65-21.34 215.22-21.61 215.78-21.88 216.27-22.27L216.27-22.27Q216.66-22.27 216.8-22.22 216.95-22.17 217-22.12 217.05-22.07 217.12-21.95 217.19-21.83 217.44-21.68ZM253.11-37.55L253.11-37.55Q253.5-37.55 253.67-37.38 253.84-37.21 253.94-36.96L253.94-36.96Q254.43-37.01 254.94-36.79 255.45-36.57 255.55-36.38L255.55-36.38Q255.94-36.33 256.04-36.18 256.13-36.04 256.33-35.99L256.33-35.99 256.87-36.04Q257.06-35.84 257.62-35.64 258.18-35.45 258.28-35.21L258.28-35.21Q258.18-34.96 258.21-34.69 258.23-34.42 258.23-34.08L258.23-34.08Q258.09-33.35 257.77-32.76 257.45-32.18 257.21-31.64L257.21-31.64Q257.06-31.4 256.99-31.1 256.92-30.81 256.82-30.57L256.82-30.57Q256.72-30.37 256.65-30.2 256.57-30.03 256.48-29.83L256.48-29.83Q256.48-29.59 256.38-29.32 256.28-29.05 256.18-28.81L256.18-28.81Q256.18-28.52 256.13-28.39 256.09-28.27 256.09-28.17L256.09-28.17Q255.16-25.93 254.62-23.97 254.08-22.02 253.55-20.07L253.55-20.07Q253.3-19.48 253.06-18.6 252.81-17.72 252.45-16.53 252.08-15.33 251.67-13.99 251.25-12.65 250.89-11.5 250.52-10.35 250.25-9.55 249.98-8.74 249.93-8.64L249.93-8.64Q249.79-7.81 249.49-6.96 249.2-6.1 249.01-5.18L249.01-5.18Q248.76-4.88 248.71-4.52 248.66-4.15 248.47-3.81L248.47-3.81Q248.08-3.86 247.83-3.61L247.83-3.61Q247.78-3.22 247.91-2.88 248.03-2.54 248.03-2.15L248.03-2.15Q247.83-1.61 247.54-1.46 247.25-1.32 247.15-0.98L247.15-0.98Q246.81-1.07 246.64-0.88 246.47-0.68 246.27-0.68L246.27-0.68Q245.68-0.83 245.59-0.49L245.59-0.49Q245.29-0.59 245.2-0.42 245.1-0.24 245-0.2L245-0.2Q244.61-0.2 244.39-0.02 244.17 0.15 243.88 0.2L243.88 0.2Q243.68 0.1 243.49-0.02 243.29-0.15 243.15-0.29L243.15-0.29Q242.85-1.12 242.61-1.93 242.36-2.73 242.12-3.56L242.12-3.56Q242.02-3.96 241.88-4.3 241.73-4.64 241.63-5.03L241.63-5.03Q241.58-5.27 241.58-5.44 241.58-5.62 241.53-5.81L241.53-5.81Q241.44-6.05 241.34-6.3 241.24-6.54 241.14-6.79L241.14-6.79Q240.75-7.86 240.56-8.98L240.56-8.98Q240.31-9.81 240.09-10.62 239.87-11.43 239.68-12.26L239.68-12.26Q239.53-12.94 239.34-13.7 239.14-14.45 238.85-15.04L238.85-15.04Q238.75-15.82 238.43-16.53 238.12-17.24 238.12-17.97L238.12-17.97Q237.87-18.75 237.7-19.53 237.53-20.31 237.29-21.09L237.29-21.09Q237.19-21.48 237.04-21.83 236.9-22.17 236.8-22.51L236.8-22.51Q236.65-22.95 236.55-23.44 236.46-23.93 236.36-24.41L236.36-24.41Q236.21-24.85 236.07-25.27 235.92-25.68 235.77-26.12L235.77-26.12Q235.53-26.95 235.31-27.76 235.09-28.56 234.85-29.39L234.85-29.39Q234.6-30.32 234.38-31.23 234.16-32.13 233.62-32.96L233.62-32.96Q233.48-33.2 233.4-33.52 233.33-33.84 233.18-34.13L233.18-34.13Q233.28-34.52 233.23-35.03 233.18-35.55 233.38-35.84L233.38-35.84Q233.87-35.84 234.55-35.86 235.24-35.89 235.58-35.79L235.58-35.79Q235.77-35.84 235.89-35.94 236.02-36.04 236.21-36.08L236.21-36.08Q236.51-35.94 236.8-35.94L236.8-35.94Q237.24-35.94 237.48-36.13L237.48-36.13Q238.02-35.89 238.07-36.04 238.12-36.18 238.31-36.18L238.31-36.18Q238.6-36.08 238.75-35.77 238.9-35.45 239.04-35.21L239.04-35.21Q239.58-34.23 239.85-33.28 240.12-32.32 240.41-31.25L240.41-31.25Q240.75-30.27 241.05-29.32 241.34-28.37 241.58-27.39L241.58-27.39Q241.73-26.9 241.83-26.42 241.93-25.93 242.02-25.44L242.02-25.44Q242.17-24.9 242.36-24.44 242.56-23.97 242.76-23.44L242.76-23.44Q242.85-22.9 242.95-22.39 243.05-21.88 243.19-21.34L243.19-21.34Q243.29-20.95 243.44-20.61 243.59-20.26 243.68-19.87L243.68-19.87Q243.78-19.48 243.88-19.07 243.98-18.65 244.07-18.26L244.07-18.26Q244.32-17.29 244.61-16.33 244.9-15.38 245.15-14.4L245.15-14.4Q245.39-14.55 245.44-14.94 245.49-15.33 245.64-15.58L245.64-15.58Q245.73-16.16 245.95-16.85 246.17-17.53 246.37-18.12L246.37-18.12Q246.42-18.36 246.49-18.55 246.56-18.75 246.66-18.99L246.66-18.99Q246.81-19.29 246.86-19.6 246.91-19.92 247-20.26L247-20.26Q247.2-20.95 247.42-21.63 247.64-22.31 247.83-23L247.83-23Q248.03-23.63 248.18-24.32 248.32-25 248.57-25.59L248.57-25.59Q248.81-26.12 248.98-26.61 249.15-27.1 249.3-27.64L249.3-27.64Q249.44-28.17 249.54-28.71 249.64-29.25 249.88-29.69L249.88-29.69Q249.98-29.93 250.1-30.25 250.23-30.57 250.32-30.86L250.32-30.86Q250.57-31.64 250.76-32.42 250.96-33.2 251.3-33.98L251.3-33.98Q251.54-34.67 251.89-35.3 252.23-35.94 252.47-36.62L252.47-36.62Q252.67-37.11 252.81-37.26 252.96-37.4 253.11-37.55ZM278.62-12.79L278.62-12.79Q278.72-12.55 279.33-11.77 279.94-10.99 280.72-10.06 281.5-9.13 282.21-8.28 282.92-7.42 283.21-7.03L283.21-7.03Q283.75-6.35 284.26-5.69 284.77-5.03 285.21-4.3L285.21-4.3 286.09-2.83Q286.48-2.34 286.8-2 287.12-1.66 287.31-1.07L287.31-1.07Q287.41-0.68 287.41-0.54L287.41-0.54Q287.41-0.2 287.17-0.05L287.17-0.05Q286.77-0.05 286.75 0.07 286.73 0.2 286.53 0.29L286.53 0.29Q286.34 0.39 285.92 0.42 285.51 0.44 285.26 0.44L285.26 0.44Q284.82 0.44 284.16 0.42 283.5 0.39 283.11 0.54L283.11 0.54Q283.01 0.59 282.82 0.68 282.62 0.78 282.53 0.78L282.53 0.78Q282.14 0.78 281.97 0.66 281.79 0.54 281.5 0.49L281.5 0.49Q281.11 0.05 280.84-0.42 280.57-0.88 280.23-1.37L280.23-1.37Q279.89-1.71 279.55-1.98 279.21-2.25 278.96-2.59L278.96-2.59Q278.23-3.66 277.45-4.69 276.67-5.71 275.84-6.69L275.84-6.69Q275.45-7.23 275.01-7.67 274.57-8.11 274.18-8.64L274.18-8.64Q273.79-9.13 273.44-9.69 273.1-10.25 272.76-10.79L272.76-10.79Q272.47-11.23 271.98-11.94 271.49-12.65 270.91-13.35 270.32-14.06 269.73-14.7 269.15-15.33 268.76-15.67L268.76-15.67Q268.71-15.97 268.51-16.14 268.32-16.31 268.07-16.46L268.07-16.46Q267.98-16.7 267.85-16.92 267.73-17.14 267.73-17.38L267.73-17.38Q267.73-17.72 267.88-18.02L267.88-18.02Q267.98-18.21 268-18.38 268.02-18.55 268.12-18.75L268.12-18.75Q268.37-19.29 268.78-19.8 269.2-20.31 269.44-20.9L269.44-20.9Q269.54-21.04 269.54-21.22 269.54-21.39 269.64-21.53L269.64-21.53Q269.73-21.92 270.05-22.19 270.37-22.46 270.56-22.8L270.56-22.8Q270.81-23.19 271.03-23.61 271.25-24.02 271.49-24.51L271.49-24.51Q272.22-25.73 273.03-26.88 273.84-28.03 274.67-29.2L274.67-29.2Q275.3-30.18 275.91-31.08 276.52-31.98 277.16-32.91L277.16-32.91Q277.5-33.35 277.89-33.94 278.28-34.52 278.74-35.11 279.21-35.69 279.69-36.18 280.18-36.67 280.67-36.96L280.67-36.96Q281.4-37.01 281.65-36.65 281.89-36.28 282.38-36.28L282.38-36.28Q283.01-36.13 283.21-35.89 283.41-35.64 283.65-35.4L283.65-35.4Q284.33-35.4 284.75-35.16 285.16-34.91 285.55-34.42L285.55-34.42Q285.41-33.89 285.11-33.47 284.82-33.06 284.58-32.62L284.58-32.62Q284.19-32.42 284.02-32.08 283.84-31.74 283.5-31.54L283.5-31.54Q283.01-30.71 282.48-29.96 281.94-29.2 281.4-28.47L281.4-28.47Q281.11-28.03 280.79-27.69 280.48-27.34 280.23-26.95L280.23-26.95Q280.13-26.81 280.06-26.64 279.99-26.46 279.89-26.32L279.89-26.32Q279.3-25.39 278.62-24.58 277.94-23.78 277.35-22.8L277.35-22.8Q277.16-22.46 277.03-22.09 276.91-21.73 276.72-21.39L276.72-21.39Q276.52-21.09 276.15-20.61 275.79-20.12 275.45-19.56 275.1-18.99 274.84-18.48 274.57-17.97 274.57-17.63L274.57-17.63Q274.62-17.38 275.18-16.67 275.74-15.97 276.45-15.16 277.16-14.36 277.79-13.65 278.42-12.94 278.62-12.79ZM281.84-21.68L281.84-21.68Q282.18-20.95 282.58-20.41L282.58-20.41Q282.72-20.21 282.92-20.07 283.11-19.92 283.21-19.68L283.21-19.68Q283.31-19.58 283.41-19.26 283.5-18.95 283.6-18.8L283.6-18.8Q283.75-18.41 284.19-17.92 284.63-17.43 284.63-17.04L284.63-17.04Q284.63-16.8 284.53-16.5 284.43-16.21 284.38-15.97L284.38-15.97Q284.33-15.67 284.33-15.36 284.33-15.04 284.14-14.79L284.14-14.79Q283.89-14.55 283.6-14.5 283.31-14.45 283.06-14.26L283.06-14.26Q282.97-14.16 282.77-13.92 282.58-13.67 282.38-13.38 282.18-13.09 282.01-12.82 281.84-12.55 281.84-12.4L281.84-12.4Q281.26-12.35 281.09-12.38 280.92-12.4 280.72-12.35L280.72-12.35Q280.48-12.6 280.21-12.77 279.94-12.94 279.55-13.09L279.55-13.09Q279.45-13.48 279.11-13.99 278.77-14.5 278.52-14.84L278.52-14.84 278.18-15.28Q277.45-16.31 276.84-17.26 276.23-18.21 275.93-19.38L275.93-19.38Q276.86-20.07 277.38-20.41 277.89-20.75 278.47-21.04 279.06-21.34 279.62-21.61 280.18-21.88 280.67-22.27L280.67-22.27Q281.06-22.27 281.21-22.22 281.35-22.17 281.4-22.12 281.45-22.07 281.53-21.95 281.6-21.83 281.84-21.68ZM318.93-8.35L318.93-8.35Q319.27-7.91 319.34-7.64 319.42-7.37 319.51-7.1 319.61-6.84 319.69-6.59 319.76-6.35 319.76-6.3L319.76-6.3Q319.76-5.96 319.64-5.74 319.51-5.52 319.27-5.18L319.27-5.18Q317.32-4.44 315.41-3.74 313.51-3.03 311.51-2.34L311.51-2.34Q310.97-2.2 310.53-2.03 310.09-1.86 309.55-1.76L309.55-1.76Q309.46-1.66 309.24-1.59 309.02-1.51 308.72-1.42 308.43-1.32 308.16-1.25 307.89-1.17 307.8-1.17L307.8-1.17Q307.41-1.07 306.94-1.1 306.48-1.12 306.04-1.07L306.04-1.07Q305.79-1.03 305.7-0.83 305.6-0.63 305.48-0.42 305.35-0.2 305.11-0.02 304.87 0.15 304.43 0.15L304.43 0.15Q303.99 0.15 303.55 0.1 303.11 0.05 302.62-0.15L302.62-0.15Q302.52-0.29 302.55-0.51 302.57-0.73 302.47-0.88L302.47-0.88Q302.03-0.93 301.79-0.81 301.55-0.68 301.3-0.63L301.3-0.63Q301.16-0.83 301.08-1.1 301.01-1.37 300.81-1.56L300.81-1.56Q300.76-1.81 300.76-2.05 300.76-2.29 300.76-2.54L300.76-2.54Q300.76-2.88 300.79-3.34 300.81-3.81 300.96-4.05L300.96-4.05Q301.11-6.84 301.11-9.62 301.11-12.4 301.11-15.19L301.11-15.19Q301.11-15.48 301.11-15.94 301.11-16.41 301.08-16.89 301.06-17.38 301.03-17.8 301.01-18.21 300.96-18.41L300.96-18.41Q301.01-18.75 301.01-19.07 301.01-19.38 301.01-19.73L301.01-19.73Q301.01-20.02 301.01-20.26 301.01-20.51 300.91-20.75L300.91-20.75Q300.96-20.95 300.96-21.29L300.96-21.29Q300.96-21.53 300.91-21.78 300.86-22.02 300.86-22.27L300.86-22.27Q300.86-22.66 300.89-23.02 300.91-23.39 300.91-23.78L300.91-23.78Q300.91-25.05 300.79-26.29 300.67-27.54 300.67-28.81L300.67-28.81Q300.67-30.47 300.64-32.13 300.62-33.79 300.57-35.45L300.57-35.45Q300.76-35.94 300.76-36.28L300.76-36.28Q301.45-36.62 301.84-36.52 302.23-36.43 302.62-36.43L302.62-36.43Q302.86-36.43 303.06-36.47 303.25-36.52 303.45-36.62L303.45-36.62Q303.69-36.57 303.87-36.5 304.04-36.43 304.28-36.43L304.28-36.43Q305.01-36.57 305.09-36.47 305.16-36.38 305.31-36.28L305.31-36.28Q305.5-36.33 305.62-36.45 305.75-36.57 305.94-36.57L305.94-36.57Q306.23-36.57 306.38-36.21 306.53-35.84 306.72-35.6L306.72-35.6Q306.72-35.06 306.92-34.62L306.92-34.62Q307.01-32.62 306.99-30.66 306.97-28.71 307.11-26.76L307.11-26.76Q307.16-25.88 307.23-24.93 307.31-23.97 307.31-23.1L307.31-23.1Q307.31-21.63 307.33-20.14 307.36-18.65 307.36-17.14L307.36-17.14Q307.36-16.89 307.38-16.7 307.41-16.5 307.41-16.26L307.41-16.26Q307.41-15.67 307.36-15.14 307.31-14.6 307.31-14.06L307.31-14.06 307.31-10.25Q307.31-9.77 307.28-9.25 307.26-8.74 307.31-8.25L307.31-8.25 307.5-7.67Q308.04-7.86 308.6-8.08 309.16-8.3 309.8-8.4L309.8-8.4Q310.19-8.5 310.53-8.59 310.87-8.69 311.26-8.79L311.26-8.79Q311.95-9.18 312.34-9.33 312.73-9.47 313.12-9.62L313.12-9.62Q313.95-9.91 314.73-10.23 315.51-10.55 316.34-10.84L316.34-10.84Q316.73-10.74 316.98-10.94L316.98-10.94Q317.46-10.84 317.85-10.84L317.85-10.84Q318.39-10.3 318.51-10.01 318.64-9.72 318.88-9.47L318.88-9.47Q318.78-9.23 318.9-9.18 319.03-9.13 319.08-8.94L319.08-8.94Q319.27-8.84 319.12-8.67 318.98-8.5 318.93-8.35ZM356.16-19.38L356.16-19.38Q356.06-19.19 355.97-19.02 355.87-18.85 355.82-18.65L355.82-18.65Q356.01-18.46 356.19-18.24 356.36-18.02 356.36-17.77L356.36-17.77Q356.36-17.58 356.28-17.41 356.21-17.24 356.26-17.09L356.26-17.09Q356.06-16.75 355.84-16.46 355.62-16.16 355.53-15.82L355.53-15.82Q355.33-15.63 355.21-15.43 355.09-15.23 354.99-15.04L354.99-15.04Q354.75-14.94 354.67-14.72 354.6-14.5 354.4-14.36L354.4-14.36Q354.35-14.16 353.92-13.43 353.48-12.7 352.94-11.87 352.4-11.04 351.91-10.25 351.42-9.47 351.23-9.23L351.23-9.23Q351.13-8.98 351.01-8.84 350.89-8.69 350.74-8.5L350.74-8.5Q350.64-8.35 350.59-8.18 350.55-8.01 350.45-7.91L350.45-7.91Q350.35-7.71 350.23-7.57 350.11-7.42 350.01-7.18L350.01-7.18Q349.52-6.54 349.03-5.66 348.54-4.79 348.1-4.1L348.1-4.1Q347.86-3.71 347.64-3.32 347.42-2.93 347.18-2.54L347.18-2.54Q346.93-2.15 346.69-1.81 346.44-1.46 346.2-1.07L346.2-1.07Q345.81-0.78 345.52-0.37 345.22 0.05 344.83 0.34L344.83 0.34Q344.2 0.34 344.05-0.24L344.05-0.24Q343.42-0.39 343.42-0.24 343.42-0.1 343.42 0L343.42 0Q343.22 0.1 343.15 0.29 343.08 0.49 342.88 0.59L342.88 0.59Q342.49 0.49 342.22 0.27 341.95 0.05 341.46 0.1L341.46 0.1Q341.27-0.2 341.02-0.42 340.78-0.63 340.58-0.88L340.58-0.88Q340.49-1.17 340.32-1.37 340.15-1.56 340-1.76L340-1.76Q339.85-2 339.71-2.2 339.56-2.39 339.41-2.59L339.41-2.59Q339.07-3.03 338.75-3.44 338.44-3.86 338.19-4.3L338.19-4.3Q337.8-4.88 337.44-5.49 337.07-6.1 336.68-6.69L336.68-6.69Q336.48-6.98 336.29-7.28 336.09-7.57 335.95-7.86L335.95-7.86Q335.85-8.11 335.68-8.45 335.51-8.79 335.26-8.89L335.26-8.89Q335.17-9.28 334.92-9.47 334.68-9.67 334.43-9.96L334.43-9.96Q334.09-10.35 333.8-10.82 333.5-11.28 333.21-11.77L333.21-11.77Q332.24-13.13 331.38-14.45 330.53-15.77 329.7-17.19L329.7-17.19Q329.94-17.97 329.94-18.36 329.94-18.75 330.18-18.99L330.18-18.99Q330.18-19.19 330.28-19.58L330.28-19.58Q330.92-20.65 331.5-21.53L331.5-21.53Q332.04-22.36 332.26-22.9 332.48-23.44 332.72-24.02L332.72-24.02Q332.97-24.17 333.11-24.39 333.26-24.61 333.5-24.8L333.5-24.8Q333.6-25.34 333.94-25.71 334.29-26.07 334.38-26.61L334.38-26.61Q334.82-26.95 334.87-27.39L334.87-27.39Q335.51-27.83 335.65-28.56L335.65-28.56Q336.04-28.96 336.31-29.44 336.58-29.93 336.83-30.47L336.83-30.47Q337.41-30.96 337.75-31.74L337.75-31.74Q338.05-31.93 338.19-32.28 338.34-32.62 338.58-32.86L338.58-32.86Q338.97-33.5 339.19-33.91 339.41-34.33 339.66-34.77L339.66-34.77Q340-34.77 340.1-35.01 340.19-35.25 340.49-35.21L340.49-35.21Q340.49-35.64 340.73-35.99L340.73-35.99Q340.83-36.04 341.02-36.11 341.22-36.18 341.22-36.28L341.22-36.28Q341.12-36.87 341.27-36.96 341.42-37.06 341.51-37.16L341.51-37.16Q342.05-37.06 342.25-37.01 342.44-36.96 342.88-36.67L342.88-36.67Q343.37-36.67 343.56-36.47 343.76-36.28 344-36.18L344-36.18Q344.2-35.99 344.32-35.79 344.44-35.6 344.69-35.5L344.69-35.5Q345.08-34.96 345.52-34.33 345.96-33.69 346.35-33.15L346.35-33.15Q346.88-32.42 347.45-31.76 348.01-31.1 348.5-30.32L348.5-30.32Q348.64-30.08 349.03-29.47 349.42-28.86 349.91-28.17 350.4-27.49 350.79-26.93 351.18-26.37 351.33-26.27L351.33-26.27Q351.47-26.03 351.96-25.34 352.45-24.66 353.01-23.9 353.57-23.14 354.11-22.46 354.65-21.78 354.84-21.58L354.84-21.58Q355.38-20.85 355.65-20.39 355.92-19.92 356.16-19.38ZM344.98-10.21L344.98-10.21Q345.52-10.94 345.81-11.52 346.1-12.11 346.4-12.7L346.4-12.7Q346.88-13.28 346.98-13.53 347.08-13.77 347.23-14.01L347.23-14.01Q347.62-14.6 348.03-15.19 348.45-15.77 348.69-16.46L348.69-16.46Q348.98-16.65 349.13-16.94 349.28-17.24 349.57-17.48L349.57-17.48Q349.28-18.51 348.89-19.07 348.5-19.63 348.1-20.17L348.1-20.17Q347.96-20.41 347.81-20.65 347.67-20.9 347.52-21.14L347.52-21.14Q347.32-21.29 347.2-21.44 347.08-21.58 346.93-21.73L346.93-21.73Q346.83-21.97 346.64-22.36L346.64-22.36Q346.44-22.61 346.25-22.8 346.05-23 345.91-23.29L345.91-23.29Q345.71-23.49 345.42-23.83 345.13-24.17 344.81-24.58 344.49-25 344.25-25.37 344-25.73 343.86-25.98L343.86-25.98Q343.76-26.22 343.69-26.39 343.61-26.56 343.51-26.76L343.51-26.76Q343.27-27.1 343.03-27.37 342.78-27.64 342.54-27.98L342.54-27.98Q342.39-27.88 342.27-27.86 342.15-27.83 342.05-27.73L342.05-27.73Q341.71-27.1 341.29-26.56 340.88-26.03 340.49-25.39L340.49-25.39Q340.15-24.8 339.8-24.19 339.46-23.58 339.12-23L339.12-23Q338.88-22.66 338.66-22.34 338.44-22.02 338.19-21.63L338.19-21.63Q337.95-21.29 337.78-20.92 337.61-20.56 337.36-20.21L337.36-20.21Q336.97-19.73 336.73-19.34 336.48-18.95 336.24-18.41L336.24-18.41Q336.39-18.12 336.7-17.6 337.02-17.09 337.36-16.58 337.7-16.06 337.97-15.63 338.24-15.19 338.29-15.04L338.29-15.04Q338.68-14.7 338.92-14.28 339.17-13.87 339.56-13.48L339.56-13.48Q339.75-13.09 340-12.79 340.24-12.5 340.49-12.16L340.49-12.16Q340.73-11.82 341.12-11.16 341.51-10.5 341.9-9.81 342.29-9.13 342.68-8.54 343.08-7.96 343.32-7.81L343.32-7.81Q343.81-8.35 344.12-9.01 344.44-9.67 344.98-10.21ZM373.47-35.5L373.47-35.5Q373.67-35.55 373.81-35.64 373.96-35.74 374.16-35.74L374.16-35.74Q374.3-35.69 374.37-35.55 374.45-35.4 374.59-35.3L374.59-35.3Q374.74-35.4 374.86-35.5 374.99-35.6 375.13-35.64L375.13-35.64Q375.62-35.5 375.67-35.16L375.67-35.16Q375.91-35.06 376.11-34.94 376.3-34.81 376.55-34.77L376.55-34.77Q376.65-34.57 376.79-34.47 376.94-34.38 377.13-34.18L377.13-34.18Q377.62-34.08 378.43-33.64 379.23-33.2 379.72-32.96L379.72-32.96Q380.21-32.71 380.7-32.47 381.19-32.23 381.63-31.93L381.63-31.93Q382.07-31.69 382.5-31.37 382.94-31.05 383.43-30.86L383.43-30.86Q383.87-30.32 384.56-30.18 385.24-30.03 385.78-29.64L385.78-29.64Q386.22-29.39 386.61-29.13 387-28.86 387.39-28.61L387.39-28.61Q387.53-28.37 387.75-28.22 387.97-28.08 388.17-27.83L388.17-27.83Q389.15-27.29 389.29-27L389.29-27Q389.44-26.9 389.73-26.71 390.02-26.51 390.32-26.29 390.61-26.07 390.85-25.85 391.1-25.63 391.15-25.44L391.15-25.44Q390.95-25 390.95-24.73 390.95-24.46 390.76-24.27L390.76-24.27Q391.05-23.88 391.05-23.54L391.05-23.54Q390.81-22.95 390.22-22.56L390.22-22.56Q390.07-22.17 389.76-21.95 389.44-21.73 389.34-21.34L389.34-21.34Q388.95-21.09 388.88-20.95 388.8-20.8 388.71-20.65L388.71-20.65Q387.78-19.68 386.97-18.97 386.17-18.26 385.48-17.43L385.48-17.43Q384.99-17.19 384.65-16.82 384.31-16.46 384.02-16.02L384.02-16.02Q383.63-15.63 383.26-15.26 382.9-14.89 382.5-14.55L382.5-14.55Q382.41-14.36 382.19-14.23 381.97-14.11 381.87-13.87L381.87-13.87Q381.33-13.62 380.99-13.18 380.65-12.74 380.16-12.45L380.16-12.45 379.82-11.96Q379.67-11.87 379.4-11.65 379.14-11.43 378.87-11.16 378.6-10.89 378.4-10.64 378.21-10.4 378.16-10.25L378.16-10.25Q378.01-10.21 377.7-9.96 377.38-9.72 377.06-9.42 376.74-9.13 376.47-8.84 376.21-8.54 376.16-8.45L376.16-8.45 375.67-8.11Q375.72-6.79 375.74-5.44 375.77-4.1 375.77-2.78L375.77-2.78 375.77-1.12 375.42-0.68Q375.18-0.68 375.03-0.78 374.89-0.88 374.69-0.88L374.69-0.88Q374.5-0.88 374.33-0.68 374.16-0.49 374.01-0.39L374.01-0.39Q373.67-0.34 373.45-0.22 373.23-0.1 372.98 0L372.98 0Q372.69-0.15 372.4-0.15L372.4-0.15Q371.76 0 371.79-0.1 371.81-0.2 371.57-0.2L371.57-0.2Q371.18 0.2 371.08 0.2L371.08 0.2Q370.88 0.2 370.71 0.24 370.54 0.29 370.35 0.29L370.35 0.29Q370.15-0.1 370.03-0.51 369.91-0.93 369.57-1.32L369.57-1.32Q369.71-1.81 369.52-2L369.52-2Q369.81-2.54 369.76-3.22 369.71-3.91 369.71-4.49L369.71-4.49Q369.71-4.83 369.74-5.15 369.76-5.47 369.76-5.76L369.76-5.76Q369.76-6.35 369.66-6.96 369.57-7.57 369.57-8.2L369.57-8.2Q369.57-9.67 369.66-11.16 369.76-12.65 369.76-14.11L369.76-14.11Q369.76-14.94 369.69-15.82 369.61-16.7 369.61-17.53L369.61-17.53Q369.61-18.07 369.66-18.53 369.71-18.99 369.76-19.43L369.76-19.43Q369.76-21.68 369.83-23.75 369.91-25.83 369.91-27.88L369.91-27.88Q369.91-28.56 369.88-29.17 369.86-29.79 369.86-30.47L369.86-30.47Q369.86-30.81 369.91-31.15 369.96-31.49 369.96-31.84L369.96-31.84Q370.1-33.35 370.1-34.86L370.1-34.86 370.05-35.64Q370.25-35.94 370.64-35.94L370.64-35.94Q371.18-35.94 371.47-35.6L371.47-35.6Q371.81-35.64 372.13-35.72 372.45-35.79 372.74-35.79L372.74-35.79Q373.18-35.79 373.47-35.5ZM376.45-27.88L376.35-27.73Q376.35-27.49 376.3-27.37 376.25-27.25 376.21-27.15L376.21-27.15Q376.21-27 376.23-26.83 376.25-26.66 376.25-26.46L376.25-26.46Q376.25-25.34 376.23-24.24 376.21-23.14 376.21-22.07L376.21-22.07 376.11-19.48Q376.11-19.24 376.16-18.95 376.21-18.65 376.21-18.41L376.21-18.41Q376.21-18.16 376.16-17.92 376.11-17.68 376.11-17.43L376.11-17.43Q376.11-16.8 376.25-16.16L376.25-16.16Q376.5-16.26 376.6-16.48 376.69-16.7 376.84-16.85L376.84-16.85Q377.96-17.87 378.94-18.99 379.92-20.12 380.94-21.24L380.94-21.24Q381.82-22.17 382.46-22.75 383.09-23.34 383.43-24.17L383.43-24.17Q382.6-24.71 381.72-25.27 380.84-25.83 379.87-26.22L379.87-26.22Q379.82-26.32 379.6-26.46 379.38-26.61 379.14-26.73 378.89-26.86 378.65-26.95 378.4-27.05 378.31-27.05L378.31-27.05Q377.87-27.44 377.38-27.54L377.38-27.54Q377.04-27.54 376.79-27.66 376.55-27.78 376.45-27.88L376.45-27.88ZM411.24-12.79L411.24-12.79Q411.34-12.55 411.95-11.77 412.56-10.99 413.34-10.06 414.12-9.13 414.83-8.28 415.54-7.42 415.83-7.03L415.83-7.03Q416.37-6.35 416.88-5.69 417.39-5.03 417.83-4.3L417.83-4.3 418.71-2.83Q419.1-2.34 419.42-2 419.74-1.66 419.93-1.07L419.93-1.07Q420.03-0.68 420.03-0.54L420.03-0.54Q420.03-0.2 419.79-0.05L419.79-0.05Q419.4-0.05 419.37 0.07 419.35 0.2 419.15 0.29L419.15 0.29Q418.96 0.39 418.54 0.42 418.13 0.44 417.88 0.44L417.88 0.44Q417.44 0.44 416.78 0.42 416.12 0.39 415.73 0.54L415.73 0.54Q415.64 0.59 415.44 0.68 415.24 0.78 415.15 0.78L415.15 0.78Q414.76 0.78 414.59 0.66 414.41 0.54 414.12 0.49L414.12 0.49Q413.73 0.05 413.46-0.42 413.19-0.88 412.85-1.37L412.85-1.37Q412.51-1.71 412.17-1.98 411.83-2.25 411.58-2.59L411.58-2.59Q410.85-3.66 410.07-4.69 409.29-5.71 408.46-6.69L408.46-6.69Q408.07-7.23 407.63-7.67 407.19-8.11 406.8-8.64L406.8-8.64Q406.41-9.13 406.07-9.69 405.72-10.25 405.38-10.79L405.38-10.79Q405.09-11.23 404.6-11.94 404.11-12.65 403.53-13.35 402.94-14.06 402.35-14.7 401.77-15.33 401.38-15.67L401.38-15.67Q401.33-15.97 401.13-16.14 400.94-16.31 400.69-16.46L400.69-16.46Q400.6-16.7 400.47-16.92 400.35-17.14 400.35-17.38L400.35-17.38Q400.35-17.72 400.5-18.02L400.5-18.02Q400.6-18.21 400.62-18.38 400.65-18.55 400.74-18.75L400.74-18.75Q400.99-19.29 401.4-19.8 401.82-20.31 402.06-20.9L402.06-20.9Q402.16-21.04 402.16-21.22 402.16-21.39 402.26-21.53L402.26-21.53Q402.35-21.92 402.67-22.19 402.99-22.46 403.18-22.8L403.18-22.8Q403.43-23.19 403.65-23.61 403.87-24.02 404.11-24.51L404.11-24.51Q404.84-25.73 405.65-26.88 406.46-28.03 407.29-29.2L407.29-29.2Q407.92-30.18 408.53-31.08 409.14-31.98 409.78-32.91L409.78-32.91Q410.12-33.35 410.51-33.94 410.9-34.52 411.36-35.11 411.83-35.69 412.32-36.18 412.8-36.67 413.29-36.96L413.29-36.96Q414.02-37.01 414.27-36.65 414.51-36.28 415-36.28L415-36.28Q415.64-36.13 415.83-35.89 416.03-35.64 416.27-35.4L416.27-35.4Q416.95-35.4 417.37-35.16 417.78-34.91 418.17-34.42L418.17-34.42Q418.03-33.89 417.74-33.47 417.44-33.06 417.2-32.62L417.2-32.62Q416.81-32.42 416.64-32.08 416.47-31.74 416.12-31.54L416.12-31.54Q415.64-30.71 415.1-29.96 414.56-29.2 414.02-28.47L414.02-28.47Q413.73-28.03 413.41-27.69 413.1-27.34 412.85-26.95L412.85-26.95Q412.75-26.81 412.68-26.64 412.61-26.46 412.51-26.32L412.51-26.32Q411.92-25.39 411.24-24.58 410.56-23.78 409.97-22.8L409.97-22.8Q409.78-22.46 409.65-22.09 409.53-21.73 409.34-21.39L409.34-21.39Q409.14-21.09 408.78-20.61 408.41-20.12 408.07-19.56 407.73-18.99 407.46-18.48 407.19-17.97 407.19-17.63L407.19-17.63Q407.24-17.38 407.8-16.67 408.36-15.97 409.07-15.16 409.78-14.36 410.41-13.65 411.05-12.94 411.24-12.79ZM414.46-21.68L414.46-21.68Q414.81-20.95 415.2-20.41L415.2-20.41Q415.34-20.21 415.54-20.07 415.73-19.92 415.83-19.68L415.83-19.68Q415.93-19.58 416.03-19.26 416.12-18.95 416.22-18.8L416.22-18.8Q416.37-18.41 416.81-17.92 417.25-17.43 417.25-17.04L417.25-17.04Q417.25-16.8 417.15-16.5 417.05-16.21 417-15.97L417-15.97Q416.95-15.67 416.95-15.36 416.95-15.04 416.76-14.79L416.76-14.79Q416.51-14.55 416.22-14.5 415.93-14.45 415.68-14.26L415.68-14.26Q415.59-14.16 415.39-13.92 415.2-13.67 415-13.38 414.81-13.09 414.63-12.82 414.46-12.55 414.46-12.4L414.46-12.4Q413.88-12.35 413.71-12.38 413.54-12.4 413.34-12.35L413.34-12.35Q413.1-12.6 412.83-12.77 412.56-12.94 412.17-13.09L412.17-13.09Q412.07-13.48 411.73-13.99 411.39-14.5 411.14-14.84L411.14-14.84 410.8-15.28Q410.07-16.31 409.46-17.26 408.85-18.21 408.56-19.38L408.56-19.38Q409.48-20.07 410-20.41 410.51-20.75 411.09-21.04 411.68-21.34 412.24-21.61 412.8-21.88 413.29-22.27L413.29-22.27Q413.68-22.27 413.83-22.22 413.98-22.17 414.02-22.12 414.07-22.07 414.15-21.95 414.22-21.83 414.46-21.68ZM454.92-4.69L454.92-4.69Q454.87-3.96 455.24-3.59 455.6-3.22 455.85-2.69L455.85-2.69Q455.75-2 455.99-1.61L455.99-1.61Q455.85-1.32 455.7-0.95 455.55-0.59 455.26-0.34L455.26-0.34Q454.48 0 454.33 0.24 454.19 0.49 453.75 0.49L453.75 0.49Q453.5 0.73 453.21 1 452.92 1.27 452.67 1.51L452.67 1.51Q452.43 1.42 452.33 1.27 452.23 1.12 452.04 0.88L452.04 0.88Q451.55 0.73 451.16 0.37 450.77 0 450.48-0.46 450.18-0.93 449.91-1.44 449.65-1.95 449.45-2.39L449.45-2.39Q448.77-3.66 448.06-4.96 447.35-6.25 446.62-7.52L446.62-7.52Q446.23-8.15 445.86-8.81 445.49-9.47 445.1-10.16L445.1-10.16Q445.01-10.25 444.91-10.38 444.81-10.5 444.71-10.64L444.71-10.64Q444.37-11.13 444.2-11.74 444.03-12.35 443.49-12.74L443.49-12.74Q442.57-12.84 441.81-12.48 441.05-12.11 440.47-11.52L440.47-11.52Q440.51-11.18 440.51-10.89 440.51-10.6 440.51-10.3L440.51-10.3Q440.51-9.18 440.42-8.15 440.32-7.13 440.32-6.01L440.32-6.01Q440.32-5.52 440.37-5 440.42-4.49 440.51-4L440.51-4Q440.37-3.47 440.37-2.83L440.37-2.83Q440.37-2.49 440.44-2.2 440.51-1.9 440.51-1.56L440.51-1.56Q440.51-1.07 440.2-0.9 439.88-0.73 439.98-0.29L439.98-0.29Q439.39-0.05 438.85 0.2 438.32 0.44 437.73 0.54L437.73 0.54Q437.49 0.59 437.24 0.56 437 0.54 436.8 0.63L436.8 0.63Q436.56 0.73 436.41 1 436.27 1.27 436.02 1.27L436.02 1.27Q435.73 1.27 435.68 1.05 435.63 0.83 435.49 0.68L435.49 0.68Q435.24 0.59 435.09 0.59 434.95 0.59 434.8 0.44L434.8 0.44Q434.85 0 434.61-0.22 434.36-0.44 434.36-1.12L434.36-1.12Q434.36-1.66 434.44-2.15 434.51-2.64 434.51-3.17L434.51-3.17Q434.51-3.61 434.39-3.98 434.26-4.35 434.17-4.79L434.17-4.79Q434.12-4.98 434.17-5.18 434.22-5.37 434.22-5.57L434.22-5.57Q434.22-6.45 434.14-7.35 434.07-8.25 434.07-9.13L434.07-9.13Q434.07-9.47 434.07-9.77 434.07-10.06 434.12-10.35L434.12-10.35Q434.22-10.64 434.29-10.84 434.36-11.04 434.36-11.33L434.36-11.33Q434.36-12.26 434.17-13.16 433.97-14.06 433.97-14.94L433.97-14.94Q433.97-15.43 434-15.94 434.02-16.46 434.02-16.94L434.02-16.94Q434.02-18.36 433.97-19.73 433.92-21.09 433.92-22.46L433.92-22.46Q433.92-23.44 433.97-24.39 434.02-25.34 434.02-26.32L434.02-26.32Q434.02-27.54 433.92-28.74 433.82-29.93 433.82-31.2L433.82-31.2Q433.82-31.64 433.78-31.79 433.73-31.93 433.63-31.96 433.53-31.98 433.41-32.01 433.29-32.03 433.19-32.18L433.19-32.18Q433.19-32.47 433.43-32.59 433.68-32.71 433.68-33.4L433.68-33.4Q433.68-33.79 433.61-34.18 433.53-34.57 433.53-34.96L433.53-34.96Q433.53-35.55 433.78-36.13 434.02-36.72 434.22-37.26L434.22-37.26Q434.8-37.3 435.02-37.26 435.24-37.21 435.49-37.3L435.49-37.3Q435.63-36.77 436.12-36.74 436.61-36.72 437-36.62L437-36.62Q437.44-36.57 437.85-36.4 438.27-36.23 438.66-36.23L438.66-36.23Q438.76-35.94 439.07-35.82 439.39-35.69 439.73-35.6L439.73-35.6Q440.12-35.64 440.34-35.94 440.56-36.23 440.95-36.23L440.95-36.23Q441.25-36.23 441.64-35.82 442.03-35.4 442.22-35.16L442.22-35.16Q442.42-35.01 442.96-34.52 443.49-34.03 444.13-33.52 444.76-33.01 445.3-32.54 445.84-32.08 445.98-32.03L445.98-32.03Q447.99-30.03 449.72-28.39 451.45-26.76 453.5-25.44L453.5-25.44Q453.55-25.29 453.62-25.2 453.7-25.1 453.8-24.95L453.8-24.95Q453.8-24.56 453.65-24.37 453.5-24.17 453.5-23.88L453.5-23.88Q453.5-23.73 453.58-23.58 453.65-23.44 453.65-23.29L453.65-23.29Q453.7-23.1 453.67-22.92 453.65-22.75 453.65-22.56L453.65-22.56Q453.65-22.07 453.97-21.68 454.28-21.29 454.28-20.8L454.28-20.8Q454.19-20.36 453.89-20.26 453.6-20.17 453.4-20.02L453.4-20.02Q453.31-19.92 453.23-19.78 453.16-19.63 453.06-19.53L453.06-19.53Q451.99-19.04 451.5-18.63 451.01-18.21 450.48-17.82L450.48-17.82Q450.33-17.72 449.99-17.5 449.65-17.29 449.3-17.07 448.96-16.85 448.69-16.6 448.42-16.36 448.42-16.21L448.42-16.21Q448.42-15.87 448.84-15.26 449.25-14.65 449.45-14.31L449.45-14.31Q449.99-13.43 450.43-12.57 450.87-11.72 451.4-10.89L451.4-10.89Q452.38-9.38 453.23-7.81 454.09-6.25 454.92-4.69ZM446.96-22.85L446.96-22.85Q445.84-24.27 444.54-25.42 443.25-26.56 442.08-27.83L442.08-27.83 441.54-27.93Q441.25-28.42 440.88-28.78 440.51-29.15 440.12-29.54L440.12-29.54Q440.17-29 440.17-28.52 440.17-28.03 440.17-27.49L440.17-27.49Q440.17-25.93 440.1-24.44 440.03-22.95 440.03-21.44L440.03-21.44Q440.03-19.92 440.17-18.55L440.17-18.55Q441.2-18.55 442.03-19.14L442.03-19.14Q442.37-19.38 442.66-19.65 442.96-19.92 443.3-20.17L443.3-20.17Q443.69-20.41 444.2-20.75 444.71-21.09 445.23-21.44 445.74-21.78 446.2-22.14 446.67-22.51 446.96-22.85Z" opacity="1" transform="matrix(1,0,0,1,0,0)" fill="#ffffff" class="slogan-text-1" data-fill-palette-color="quaternary" id="text-1"></path></svg></g></svg></g></svg></g></svg></g><g transform="matrix(1,0,0,1,67.97275938086014,0)"><svg viewBox="0 0 77.21292246543683 77.21195731597038" height="77.21195731597038" width="77.21292246543683"><g><svg xmlns="http://www.w3.org/2000/svg" xmlns:xlink="http://www.w3.org/1999/xlink" version="1.0" x="0" y="0" viewBox="10 10 80.001 80" enable-background="new 0 0 100 100" xml:space="preserve" height="77.21195731597038" width="77.21292246543683" class="icon-icon-0" data-fill-palette-color="quaternary" id="icon-0"><path fill="none" stroke="#FFFFFF" stroke-linecap="round" stroke-linejoin="round" stroke-miterlimit="10" d="M25 69.998L22.499 90 25 69.998z"></path><path fill="none" stroke="#FFFFFF" stroke-linecap="round" stroke-linejoin="round" stroke-miterlimit="10" d="M47.5 49.169c-1.557 0.927-3.238 1.454-4.999 1.454-2.249 0-4.371-0.833-6.26-2.294v0.548c0 1.844-0.744 3.514-1.953 4.717-0.616 0.615-1.351 1.109-2.167 1.445l-18.755 7.773C11.285 64.893 10 67.762 10 70.936V90h37.5V49.169z"></path><path fill="none" stroke="#FFFFFF" stroke-linecap="round" stroke-linejoin="round" stroke-miterlimit="10" d="M47.5 10.912C45.943 10.327 44.262 10 42.501 10c-7.262 0-13.239 5.446-14.104 12.478v4.059c-1.84 0.654-3.163 2.391-3.163 4.454 0 4.038 2.05 7.311 4.606 7.424 2.35 7.242 7.131 12.209 12.66 12.209 1.761 0 3.442-0.506 4.999-1.429V10.912z"></path><path fill="none" stroke="#FFFFFF" stroke-linecap="round" stroke-linejoin="round" stroke-miterlimit="10" d="M77.272 53.51l-2.653-2.652L77.272 53.51z"></path><circle fill="none" stroke="#FFFFFF" stroke-linecap="round" stroke-linejoin="round" stroke-miterlimit="10" cx="77.499" cy="77.498" r="5.7"></circle><path fill="none" stroke="#FFFFFF" stroke-linecap="round" stroke-linejoin="round" stroke-miterlimit="10" d="M81.088 86.158c1.466-0.605 3.117-0.002 3.891 1.338 0.956-0.717 1.802-1.564 2.517-2.52-1.34-0.771-1.942-2.424-1.335-3.893 0.608-1.467 2.203-2.207 3.695-1.805 0.084-0.582 0.143-1.174 0.143-1.781 0-0.605-0.059-1.195-0.143-1.777-1.492 0.402-3.089-0.344-3.695-1.809-0.607-1.469-0.005-3.121 1.335-3.891-0.715-0.957-1.562-1.805-2.517-2.521-0.773 1.344-2.427 1.947-3.893 1.34-1.468-0.609-2.212-2.203-1.807-3.699C78.695 65.059 78.104 65 77.5 65c-0.608 0-1.197 0.059-1.781 0.141 0.403 1.496-0.341 3.09-1.807 3.699-1.468 0.607-3.12 0.004-3.89-1.336-0.956 0.717-1.802 1.561-2.519 2.518 1.342 0.77 1.944 2.426 1.337 3.891-0.608 1.467-2.203 2.211-3.698 1.809-0.085 0.582-0.142 1.172-0.142 1.777 0 0.607 0.057 1.199 0.142 1.781 1.495-0.402 3.09 0.342 3.698 1.809 0.607 1.467 0.005 3.121-1.337 3.893 0.717 0.955 1.563 1.799 2.519 2.516 0.77-1.34 2.423-1.943 3.89-1.338 1.466 0.611 2.21 2.205 1.807 3.701C76.303 89.941 76.892 90 77.5 90c0.606 0 1.197-0.059 1.779-0.141C78.876 88.363 79.622 86.77 81.088 86.158z"></path><path fill="none" stroke="#FFFFFF" stroke-linecap="round" stroke-linejoin="round" stroke-miterlimit="10" d="M86.59 36.65v-3.304V36.65z"></path><path fill="none" stroke="#FFFFFF" stroke-linecap="round" stroke-linejoin="round" stroke-miterlimit="10" d="M78.777 10.357c-0.475-0.475-1.25-0.475-1.728 0.004l0 0L58.892 28.513 55.003 35l6.482-3.889 18.159-18.159 0 0c0.477-0.476 0.476-1.251 0-1.727L78.777 10.357z"></path><path fill="none" stroke="#FFFFFF" stroke-linecap="round" stroke-linejoin="round" stroke-miterlimit="10" d="M75.32 12.086l2.595 2.595L75.32 12.086z"></path><path fill="none" stroke="#FFFFFF" stroke-linecap="round" stroke-linejoin="round" stroke-miterlimit="10" d="M73.591 13.816l2.595 2.595L73.591 13.816z"></path><path fill="none" stroke="#FFFFFF" stroke-linecap="round" stroke-linejoin="round" stroke-miterlimit="10" d="M58.892 28.516l2.594 2.595L58.892 28.516z"></path><path fill="none" stroke="#FFFFFF" stroke-linecap="round" stroke-linejoin="round" stroke-miterlimit="10" d="M83.902 56.6L71.527 44.229c-1.464-1.464-3.839-1.464-5.304 0l0 0L47.5 62.953v15.578l7.234 7.238c1.465 1.465 3.838 1.469 5.303 0l6.528-6.527c-0.462-0.094-0.946-0.094-1.423 0.037-0.085-0.582-0.142-1.174-0.142-1.781 0-0.605 0.057-1.195 0.142-1.777 1.495 0.402 3.09-0.342 3.698-1.809 0.607-1.465 0.005-3.121-1.337-3.891 0.717-0.957 1.563-1.801 2.519-2.518 0.77 1.34 2.422 1.943 3.89 1.336 1.466-0.609 2.21-2.203 1.807-3.699C76.303 65.059 76.892 65 77.5 65c0.604 0 1.195 0.059 1.779 0.141-0.13 0.479-0.13 0.965-0.038 1.426l4.659-4.66h0.002C85.366 60.441 85.366 58.064 83.902 56.6z"></path><path fill="none" stroke="#FFFFFF" stroke-linecap="round" stroke-linejoin="round" stroke-miterlimit="10" d="M65.34 45.115L47.5 62.953v6.748l14.304 14.305 4.765-4.764c-0.463-0.094-0.949-0.094-1.426 0.037-0.085-0.582-0.142-1.174-0.142-1.781 0-0.605 0.057-1.195 0.142-1.777 1.495 0.402 3.09-0.342 3.698-1.809 0.607-1.465 0.005-3.121-1.337-3.891 0.717-0.957 1.563-1.801 2.519-2.518 0.77 1.34 2.422 1.943 3.89 1.336 1.466-0.609 2.21-2.203 1.807-3.699C76.303 65.059 76.892 65 77.5 65c0.604 0 1.195 0.059 1.779 0.141-0.13 0.479-0.13 0.965-0.038 1.43l3.777-3.779L65.34 45.115z"></path><path fill="none" stroke="#FFFFFF" stroke-linecap="round" stroke-linejoin="round" stroke-miterlimit="10" d="M86.692 16.817H75.779L61.485 31.111 55.003 35l3.889-6.486 11.697-11.696H47.5v36.367h9.771l8.953-8.955 0 0c1.465-1.464 3.84-1.464 5.304 0l8.954 8.955h6.211c1.826 0 3.308-1.482 3.308-3.308V20.125C90 18.298 88.519 16.817 86.692 16.817z"></path><path fill="none" stroke="#FFFFFF" stroke-linecap="round" stroke-linejoin="round" stroke-miterlimit="10" d="M73.505 19.09l-12.02 12.021L55.003 35l3.889-6.486 9.425-9.423H47.5v31.82h12.044l6.68-6.681 0 0c1.465-1.464 3.84-1.464 5.304 0l6.681 6.681h4.973V19.09H73.505z"></path></svg></g></svg></g><g></g></svg></g></svg></g></svg></g></svg></g><defs></defs></svg><rect width="342.85155851775386" height="342.85155851775386" fill="none" stroke="none" visibility="hidden"></rect></g></svg></g></svg>