<svg width="424" height="424" viewBox="0 0 424 424" fill="none" xmlns="http://www.w3.org/2000/svg">
<rect width="424" height="424" fill="white"/>
<g clip-path="url(#clip0_4915_19198)">
<path d="M102.976 162.641V380.083C84.1968 361.296 70.2515 337.674 63.1702 311.248C59.7636 298.528 57.9443 285.155 57.9443 271.362C57.9443 264.534 58.3865 257.815 59.2562 251.22C62.6846 225.011 72.7159 200.875 87.6251 180.544C92.2783 174.187 97.4172 168.2 102.976 162.641Z" fill="black"/>
<path d="M320.418 162.641H102.977C108.536 157.082 114.523 151.943 120.872 147.29C138.782 134.149 159.649 124.806 182.285 120.414C191.809 118.573 201.637 117.609 211.697 117.609C221.758 117.609 231.586 118.573 241.11 120.414C263.745 124.806 284.613 134.149 302.522 147.29C308.872 151.943 314.859 157.082 320.418 162.641Z" fill="black"/>
<path d="M365.45 271.362C365.45 285.155 363.638 298.528 360.224 311.248C353.15 337.674 339.205 361.296 320.418 380.083V162.641C325.977 168.2 331.116 174.187 335.769 180.537C350.679 200.867 360.71 225.003 364.138 251.212C365.008 257.808 365.45 264.534 365.45 271.362Z" fill="black"/>
<path d="M320.418 380.09H102.977V423.578H320.418V380.09Z" fill="black"/>
<path d="M320.418 162.648V97.4595H385.607L320.418 162.648Z" fill="black"/>
<path d="M320.418 97.4593V54H363.877L320.418 97.4593Z" fill="black"/>
<path d="M102.976 162.648V97.4595H37.7871L102.976 162.648Z" fill="black"/>
<path d="M102.976 97.4593V54H59.5171L102.976 97.4593Z" fill="black"/>
<path d="M374.757 304.007C392.783 304.007 407.395 289.394 407.395 271.369C407.395 253.343 392.783 238.731 374.757 238.731C356.732 238.731 342.119 253.343 342.119 271.369C342.119 289.394 356.732 304.007 374.757 304.007Z" fill="black"/>
<path d="M48.638 304.007C66.6634 304.007 81.2759 289.394 81.2759 271.369C81.2759 253.343 66.6634 238.731 48.638 238.731C30.6125 238.731 16 253.343 16 271.369C16 289.394 30.6125 304.007 48.638 304.007Z" fill="black"/>
<path d="M363.92 293.106H385.599V325.751C385.599 331.738 380.743 336.594 374.756 336.594C368.769 336.594 363.913 331.738 363.913 325.751V293.106H363.92Z" fill="black"/>
</g>
<defs>
<clipPath id="clip0_4915_19198">
<rect width="391.394" height="369.578" fill="white" transform="translate(16 54)"/>
</clipPath>
</defs>
</svg>
