<svg xmlns="http://www.w3.org/2000/svg" version="1.1" xmlns:xlink="http://www.w3.org/1999/xlink" xmlns:svgjs="http://svgjs.dev/svgjs" width="2000" height="1999" viewBox="0 0 2000 1999"><g transform="matrix(1,0,0,1,-0.431486880466764,-0.4312711370263287)"><svg viewBox="0 0 343 343" data-background-color="#ffffff" preserveAspectRatio="xMidYMid meet" height="1999" width="2000" xmlns="http://www.w3.org/2000/svg" xmlns:xlink="http://www.w3.org/1999/xlink"><g id="tight-bounds" transform="matrix(1,0,0,1,0.0740000000000407,0.07400000000001228)"><svg viewBox="0 0 342.85155851775386 342.85155851775386" height="342.85155851775386" width="342.85155851775386"><g><svg></svg></g><g><svg viewBox="0 0 342.85155851775386 342.85155851775386" height="342.85155851775386" width="342.85155851775386"><g><path d="M0 171.426c0-94.676 76.75-171.426 171.426-171.426 94.676 0 171.426 76.75 171.426 171.426 0 94.676-76.75 171.426-171.426 171.426-94.676 0-171.426-76.75-171.426-171.426zM171.426 331.894c88.624 0 160.468-71.844 160.468-160.468 0-88.624-71.844-160.468-160.468-160.468-88.624 0-160.468 71.844-160.468 160.468 0 88.624 71.844 160.468 160.468 160.468z" data-fill-palette-color="tertiary" fill="#ee3e38" stroke="transparent"></path><ellipse rx="164.56874808852186" ry="164.56874808852186" cx="171.42577925887693" cy="171.42577925887693" fill="#ee3e38" stroke="transparent" stroke-width="0" fill-opacity="1" data-fill-palette-color="tertiary"></ellipse></g><g transform="matrix(1,0,0,1,64.84655864529837,110.67009308256715)"><svg viewBox="0 0 213.1584412271571 121.51137235261957" height="121.51137235261957" width="213.1584412271571"><g><svg viewBox="0 0 213.1584412271571 121.51137235261957" height="121.51137235261957" width="213.1584412271571"><g><svg viewBox="0 0 213.1584412271571 121.51137235261957" height="121.51137235261957" width="213.1584412271571"><g id="textblocktransform"><svg viewBox="0 0 213.1584412271571 121.51137235261957" height="121.51137235261957" width="213.1584412271571" id="textblock"><g><svg viewBox="0 0 213.1584412271571 121.51137235261957" height="121.51137235261957" width="213.1584412271571"><g transform="matrix(1,0,0,1,0,0)"><svg width="213.1584412271571" viewBox="3.54 -37.55 65.86999999999999 37.55" height="121.51137235261957" data-palette-color="#ffffff"><path d="M32.47-20.7L32.47-14.31 12.43-14.31 12.43-20.7 32.47-20.7ZM35.33-6.35L35.33 0 12.43 0Q11.11 0 9.55-0.46 7.98-0.93 6.65-1.99 5.32-3.05 4.43-4.75 3.54-6.45 3.54-8.91L3.54-8.91 3.54-31.81Q3.54-32.47 3.78-33.06 4.03-33.64 4.46-34.08 4.88-34.52 5.47-34.77 6.05-35.01 6.74-35.01L6.74-35.01 35.33-35.01 35.33-28.66 9.89-28.66 9.89-8.91Q9.89-7.67 10.55-7.01 11.21-6.35 12.48-6.35L12.48-6.35 35.33-6.35ZM69.41-37.55L69.41-8.91Q69.41-7.28 68.99-5.97 68.58-4.66 67.89-3.67 67.21-2.69 66.31-1.99 65.4-1.29 64.41-0.85 63.43-0.42 62.41-0.21 61.4 0 60.5 0L60.5 0 49.05 0Q47.41 0 46.12-0.42 44.82-0.83 43.83-1.53 42.84-2.22 42.15-3.13 41.45-4.03 41.01-5.02 40.57-6.01 40.37-7.02 40.16-8.03 40.16-8.91L40.16-8.91 40.16-17.5Q40.16-19.95 41.05-21.64 41.94-23.34 43.27-24.4 44.6-25.46 46.16-25.93 47.73-26.39 49.05-26.39L49.05-26.39 60.5-26.39 60.5-20.04 49.09-20.04Q47.82-20.04 47.17-19.4 46.51-18.75 46.51-17.5L46.51-17.5 46.51-8.96Q46.51-7.67 47.15-7.01 47.8-6.35 49.05-6.35L49.05-6.35 60.5-6.35Q61.79-6.35 62.42-7.01 63.06-7.67 63.06-8.91L63.06-8.91 63.06-37.55 69.41-37.55Z" opacity="1" transform="matrix(1,0,0,1,0,0)" fill="#ffffff" class="wordmark-text-0" data-fill-palette-color="quaternary" id="text-0"></path></svg></g></svg></g></svg></g></svg></g><g></g></svg></g></svg></g></svg></g><defs></defs></svg><rect width="342.85155851775386" height="342.85155851775386" fill="none" stroke="none" visibility="hidden"></rect></g></svg></g></svg>